<svg width="310" height="200" viewBox="0 0 310 200" fill="none" xmlns="http://www.w3.org/2000/svg">
<g clip-path="url(#clip0)">
<path d="M302.43 199.995H7.69401C5.68223 199.993 3.75355 199.192 2.33101 197.769C0.908464 196.345 0.10821 194.415 0.105776 192.401V10.535C0.104555 9.05764 0.689515 7.64019 1.73211 6.5942C2.7747 5.54822 4.18961 4.9593 5.66588 4.95686H304.343C305.843 4.95929 307.28 5.5565 308.34 6.61763C309.401 7.67875 309.998 9.11724 310 10.6179V192.401C309.998 194.412 309.2 196.339 307.781 197.762C306.363 199.185 304.439 199.988 302.43 199.995Z" fill="#DDDADA"/>
<path d="M291.659 190.625H16.993C12.9644 190.625 9.68994 187.555 9.68994 183.781V25.4056C9.68994 22.6073 12.1182 20.3429 15.1029 20.3429H293.462C296.498 20.3429 298.981 22.6441 298.981 25.5022V183.781C298.963 187.555 295.688 190.625 291.659 190.625Z" fill="white"/>
<path d="M309.894 11.4831H0V7.61705C0.0012059 6.61477 0.199813 5.62257 0.584466 4.69717C0.969119 3.77177 1.53227 2.93132 2.24173 2.22389C2.95118 1.51646 3.79301 0.955916 4.71908 0.574318C5.64516 0.192721 6.63732 -0.00244757 7.63882 -2.7355e-05H302.278C304.297 0.00119038 306.233 0.803946 307.661 2.23203C309.088 3.66011 309.892 5.59683 309.894 7.61705V11.4831Z" fill="#68417F"/>
<path d="M13.8428 7.72293C14.9298 7.72293 15.8111 6.841 15.8111 5.75308C15.8111 4.66516 14.9298 3.78322 13.8428 3.78322C12.7557 3.78322 11.8744 4.66516 11.8744 5.75308C11.8744 6.841 12.7557 7.72293 13.8428 7.72293Z" fill="white"/>
<path d="M21.316 7.72293C22.4031 7.72293 23.2844 6.841 23.2844 5.75308C23.2844 4.66516 22.4031 3.78322 21.316 3.78322C20.2289 3.78322 19.3477 4.66516 19.3477 5.75308C19.3477 6.841 20.2289 7.72293 21.316 7.72293Z" fill="white"/>
<path d="M28.7939 7.72293C29.881 7.72293 30.7622 6.841 30.7622 5.75308C30.7622 4.66516 29.881 3.78322 28.7939 3.78322C27.7068 3.78322 26.8256 4.66516 26.8256 5.75308C26.8256 6.841 27.7068 7.72293 28.7939 7.72293Z" fill="white"/>
<path d="M146.2 170.185H50.6204C48.4867 170.183 46.441 169.333 44.9322 167.823C43.4234 166.314 42.5747 164.266 42.5723 162.131V46.5401C42.5723 44.9467 43.2035 43.4182 44.3277 42.2898C45.4518 41.1614 46.9771 40.525 48.5693 40.5201H148.136C148.939 40.5201 149.733 40.6783 150.475 40.9857C151.217 41.2931 151.89 41.7436 152.458 42.3116C153.025 42.8796 153.476 43.5539 153.783 44.296C154.09 45.0381 154.248 45.8335 154.248 46.6367V162.159C154.238 164.289 153.386 166.329 151.878 167.833C150.37 169.337 148.329 170.183 146.2 170.185ZM48.5693 41.4406C47.2242 41.4503 45.9376 41.9919 44.9899 42.9471C44.0422 43.9024 43.5104 45.194 43.5105 46.5401V162.136C43.5129 164.027 44.2647 165.84 45.601 167.177C46.9373 168.515 48.749 169.267 50.6388 169.269H146.2C148.09 169.267 149.901 168.515 151.238 167.177C152.574 165.84 153.326 164.027 153.328 162.136V46.6367C153.327 45.259 152.78 43.938 151.806 42.9638C150.833 41.9896 149.513 41.4418 148.136 41.4406H48.5693Z" fill="#D3D0D0"/>
<path d="M57.9787 162.136H138.842C140.793 162.136 142.665 161.36 144.045 159.979C145.425 158.598 146.2 156.725 146.2 154.772V56.0442C146.2 54.0911 145.425 52.2181 144.045 50.8371C142.665 49.4561 140.793 48.6802 138.842 48.6802H57.9787C56.0272 48.6802 54.1556 49.4561 52.7756 50.8371C51.3957 52.2181 50.6204 54.0911 50.6204 56.0442V154.772C50.6204 156.725 51.3957 158.598 52.7756 159.979C54.1556 161.36 56.0272 162.136 57.9787 162.136Z" fill="#E6E6E6"/>
<path d="M120.713 68.8068H76.1031C75.3103 68.8068 74.5499 68.4916 73.9893 67.9306C73.4287 67.3696 73.1138 66.6086 73.1138 65.8152C73.1138 65.0218 73.4287 64.2609 73.9893 63.6998C74.5499 63.1388 75.3103 62.8236 76.1031 62.8236H120.713C121.505 62.8236 122.266 63.1388 122.826 63.6998C123.387 64.2609 123.702 65.0218 123.702 65.8152C123.702 66.6086 123.387 67.3696 122.826 67.9306C122.266 68.4916 121.505 68.8068 120.713 68.8068Z" fill="white"/>
<path d="M120.713 133.702H76.1031C75.3103 133.702 74.5499 133.386 73.9893 132.825C73.4287 132.264 73.1138 131.503 73.1138 130.71C73.1138 129.917 73.4287 129.156 73.9893 128.595C74.5499 128.034 75.3103 127.718 76.1031 127.718H120.713C121.505 127.718 122.266 128.034 122.826 128.595C123.387 129.156 123.702 129.917 123.702 130.71C123.702 131.503 123.387 132.264 122.826 132.825C122.266 133.386 121.505 133.702 120.713 133.702Z" fill="white"/>
<path d="M120.713 147.969H76.1031C75.3103 147.969 74.5499 147.654 73.9893 147.093C73.4287 146.532 73.1138 145.771 73.1138 144.978C73.1138 144.184 73.4287 143.423 73.9893 142.862C74.5499 142.301 75.3103 141.986 76.1031 141.986H120.713C121.505 141.986 122.266 142.301 122.826 142.862C123.387 143.423 123.702 144.184 123.702 144.978C123.702 145.771 123.387 146.532 122.826 147.093C122.266 147.654 121.505 147.969 120.713 147.969Z" fill="white"/>
<path d="M98.6379 112.765C108.544 112.765 116.574 104.729 116.574 94.8153C116.574 84.902 108.544 76.8657 98.6379 76.8657C88.7322 76.8657 80.702 84.902 80.702 94.8153C80.702 104.729 88.7322 112.765 98.6379 112.765Z" fill="white"/>
<path d="M214.02 78.3661L206.202 80.0184C206.143 80.031 206.087 80.0551 206.037 80.0895C205.987 80.1239 205.944 80.1677 205.911 80.2186C205.878 80.2695 205.856 80.3264 205.845 80.386C205.834 80.4457 205.835 80.5069 205.848 80.5661C205.858 80.6043 205.872 80.6414 205.889 80.6766L206.616 82.1171L171.204 100.117C171.149 100.144 171.099 100.181 171.058 100.227C171.017 100.273 170.986 100.327 170.966 100.385C170.946 100.443 170.938 100.505 170.943 100.567C170.947 100.628 170.964 100.688 170.992 100.743C171.02 100.798 171.059 100.846 171.106 100.886C171.153 100.925 171.208 100.955 171.266 100.973C171.325 100.991 171.387 100.997 171.448 100.991C171.51 100.985 171.569 100.966 171.623 100.937L207.035 82.9364L207.766 84.377C207.821 84.4854 207.917 84.5675 208.032 84.6054C208.148 84.6434 208.273 84.6341 208.382 84.5795C208.419 84.5608 208.453 84.5376 208.483 84.5104L214.462 79.1578C214.553 79.0765 214.607 78.9625 214.614 78.8409C214.621 78.7192 214.58 78.5998 214.499 78.5088C214.441 78.4415 214.365 78.3922 214.281 78.3669C214.196 78.3416 214.105 78.3413 214.02 78.3661Z" fill="#E6E6E6"/>
<path d="M214.02 123.102L206.202 121.45C206.083 121.424 205.98 121.353 205.913 121.251C205.847 121.149 205.824 121.026 205.848 120.907C205.857 120.867 205.871 120.828 205.889 120.792L206.616 119.351L171.204 101.351C171.149 101.324 171.099 101.287 171.058 101.241C171.017 101.195 170.986 101.141 170.966 101.083C170.946 101.025 170.938 100.963 170.943 100.902C170.947 100.84 170.964 100.78 170.992 100.725C171.02 100.671 171.059 100.622 171.106 100.582C171.153 100.543 171.208 100.513 171.266 100.495C171.325 100.477 171.387 100.471 171.448 100.477C171.51 100.483 171.569 100.502 171.623 100.532L207.035 118.532L207.766 117.091C207.821 116.983 207.917 116.901 208.032 116.863C208.148 116.825 208.273 116.834 208.382 116.889C208.419 116.907 208.453 116.931 208.483 116.958L214.462 122.31C214.553 122.392 214.607 122.506 214.614 122.627C214.621 122.749 214.58 122.868 214.499 122.959C214.441 123.027 214.365 123.076 214.281 123.101C214.196 123.127 214.105 123.127 214.02 123.102Z" fill="#E6E6E6"/>
<path d="M239.843 88.6066C237.842 88.6066 235.886 88.0128 234.222 86.9002C232.558 85.7876 231.262 84.2062 230.496 82.356C229.73 80.5058 229.53 78.47 229.92 76.5058C230.31 74.5417 231.274 72.7375 232.689 71.3214C234.104 69.9054 235.907 68.941 237.869 68.5503C239.832 68.1596 241.866 68.3602 243.715 69.1265C245.564 69.8929 247.144 71.1907 248.256 72.8558C249.368 74.5209 249.961 76.4786 249.961 78.4812C249.961 81.1666 248.895 83.7421 246.998 85.6409C245.1 87.5398 242.527 88.6066 239.843 88.6066ZM239.843 69.2763C238.024 69.2763 236.246 69.8161 234.733 70.8276C233.221 71.839 232.042 73.2766 231.346 74.9586C230.649 76.6406 230.467 78.4914 230.822 80.277C231.177 82.0626 232.053 83.7027 233.339 84.9901C234.626 86.2774 236.265 87.1541 238.049 87.5092C239.833 87.8644 241.682 87.6821 243.363 86.9854C245.044 86.2887 246.48 85.1089 247.491 83.5952C248.502 82.0814 249.041 80.3018 249.041 78.4812C249.041 76.0399 248.072 73.6986 246.347 71.9723C244.622 70.2461 242.283 69.2763 239.843 69.2763Z" fill="#E6E6E6"/>
<path d="M239.843 133.251C237.842 133.251 235.886 132.657 234.222 131.544C232.558 130.431 231.262 128.85 230.496 127C229.73 125.15 229.53 123.114 229.92 121.15C230.31 119.186 231.274 117.381 232.689 115.965C234.104 114.549 235.907 113.585 237.869 113.194C239.832 112.804 241.866 113.004 243.715 113.77C245.564 114.537 247.144 115.835 248.256 117.5C249.368 119.165 249.961 121.122 249.961 123.125C249.961 125.811 248.895 128.386 246.998 130.285C245.1 132.184 242.527 133.251 239.843 133.251ZM239.843 113.92C238.024 113.92 236.246 114.46 234.733 115.471C233.221 116.483 232.042 117.921 231.346 119.603C230.649 121.285 230.467 123.135 230.822 124.921C231.177 126.706 232.053 128.347 233.339 129.634C234.626 130.921 236.265 131.798 238.049 132.153C239.833 132.508 241.682 132.326 243.363 131.629C245.044 130.933 246.48 129.753 247.491 128.239C248.502 126.725 249.041 124.946 249.041 123.125C249.041 120.684 248.072 118.342 246.347 116.616C244.622 114.89 242.283 113.92 239.843 113.92Z" fill="#E6E6E6"/>
<path d="M239.043 83.4702C238.752 83.4712 238.468 83.3776 238.234 83.2033L235.18 80.8653C234.999 80.7736 234.841 80.6434 234.717 80.4838C234.592 80.3241 234.504 80.139 234.459 79.9415C234.414 79.7441 234.413 79.5391 234.456 79.3411C234.499 79.1432 234.585 78.9571 234.707 78.7961C234.83 78.635 234.987 78.503 235.166 78.4094C235.346 78.3158 235.544 78.2628 235.746 78.2543C235.948 78.2458 236.15 78.2819 236.337 78.3601C236.523 78.4383 236.69 78.5566 236.826 78.7067L238.804 80.2255L243.476 74.1227C243.699 73.8412 244.022 73.6573 244.377 73.6101C244.733 73.5628 245.092 73.6559 245.38 73.8695L245.348 73.9109L245.38 73.8695C245.661 74.0927 245.844 74.4163 245.89 74.7719C245.937 75.1275 245.843 75.4873 245.629 75.7749L240.11 82.9502C239.982 83.1144 239.818 83.2473 239.63 83.3389C239.443 83.4306 239.238 83.4786 239.029 83.4795L239.043 83.4702Z" fill="#E6E6E6"/>
<path d="M235.456 127.52C235.391 127.457 235.34 127.381 235.305 127.297C235.27 127.213 235.252 127.123 235.252 127.033C235.252 126.942 235.27 126.852 235.305 126.768C235.34 126.684 235.391 126.608 235.456 126.545L243.274 118.721C243.337 118.653 243.413 118.598 243.498 118.561C243.583 118.523 243.674 118.503 243.767 118.501C243.859 118.499 243.951 118.516 244.037 118.551C244.123 118.586 244.201 118.637 244.267 118.703C244.332 118.769 244.384 118.847 244.418 118.933C244.453 119.019 244.47 119.111 244.469 119.203C244.467 119.296 244.447 119.387 244.409 119.472C244.371 119.557 244.317 119.633 244.249 119.696L236.431 127.52C236.301 127.649 236.126 127.72 235.943 127.72C235.761 127.72 235.586 127.649 235.456 127.52Z" fill="#E6E6E6"/>
<path d="M243.775 127.52C243.84 127.457 243.891 127.381 243.926 127.297C243.961 127.213 243.979 127.123 243.979 127.033C243.979 126.942 243.961 126.852 243.926 126.768C243.891 126.684 243.84 126.608 243.775 126.545L235.957 118.721C235.826 118.599 235.654 118.532 235.475 118.535C235.296 118.538 235.126 118.611 234.999 118.737C234.873 118.864 234.8 119.035 234.797 119.213C234.794 119.392 234.86 119.565 234.982 119.696L242.8 127.52C242.93 127.649 243.105 127.72 243.288 127.72C243.47 127.72 243.645 127.649 243.775 127.52Z" fill="#E6E6E6"/>
<path d="M257.315 101.102H257.227C257.066 101.079 256.921 100.993 256.823 100.863L253.065 95.8003C253.054 95.7838 253.039 95.7698 253.022 95.7592C253.005 95.7486 252.986 95.7415 252.966 95.7385C252.947 95.7355 252.926 95.7366 252.907 95.7417C252.888 95.7467 252.87 95.7557 252.854 95.768C252.831 95.7822 252.813 95.8032 252.803 95.8279L250.876 100.343C250.826 100.46 250.74 100.559 250.631 100.625C250.522 100.691 250.395 100.722 250.268 100.712C250.141 100.703 250.019 100.653 249.922 100.571C249.824 100.49 249.754 100.379 249.722 100.255L245.863 85.3711C245.843 85.2919 245.839 85.2093 245.851 85.1284C245.863 85.0475 245.892 84.9699 245.935 84.9003C245.978 84.8306 246.034 84.7704 246.101 84.7232C246.168 84.676 246.243 84.6427 246.323 84.6255C246.479 84.5866 246.644 84.6097 246.783 84.6899L259.954 92.6338C260.023 92.6749 260.083 92.7293 260.131 92.7938C260.179 92.8583 260.213 92.9316 260.232 93.0094C260.252 93.0873 260.255 93.1682 260.243 93.2475C260.231 93.3268 260.203 93.4029 260.161 93.4714C260.113 93.5533 260.047 93.6226 259.967 93.6738C259.887 93.725 259.796 93.7566 259.702 93.766L254.827 94.3275C254.787 94.3321 254.751 94.3521 254.726 94.383C254.701 94.414 254.689 94.4536 254.693 94.4932C254.696 94.5204 254.707 94.5461 254.725 94.5668L258.483 99.6295C258.58 99.7596 258.621 99.9227 258.598 100.083C258.574 100.244 258.488 100.388 258.359 100.486L257.669 101.001C257.564 101.072 257.44 101.107 257.315 101.102Z" fill="#68417F"/>
<path d="M278.704 112.079H262.148C260.928 112.079 259.759 111.594 258.896 110.731C258.034 109.868 257.549 108.697 257.549 107.477C257.549 106.256 258.034 105.085 258.896 104.222C259.759 103.359 260.928 102.874 262.148 102.874H278.704C279.924 102.874 281.094 103.359 281.956 104.222C282.819 105.085 283.303 106.256 283.303 107.477C283.303 108.697 282.819 109.868 281.956 110.731C281.094 111.594 279.924 112.079 278.704 112.079Z" fill="#68417F"/>
<path d="M78.0622 80.2715L77.377 79.7561C77.2472 79.659 77.1612 79.5143 77.1379 79.3538C77.1146 79.1932 77.156 79.0301 77.2528 78.9L81.0101 73.8373C81.0225 73.8215 81.0314 73.8033 81.0365 73.7839C81.0416 73.7646 81.0427 73.7443 81.0396 73.7245C81.0366 73.7047 81.0296 73.6857 81.019 73.6687C81.0084 73.6517 80.9944 73.637 80.9779 73.6256C80.9569 73.6089 80.9312 73.5993 80.9044 73.598L76.0341 73.0733C75.8732 73.0548 75.7262 72.9732 75.6253 72.8464C75.5244 72.7195 75.4779 72.5578 75.496 72.3967C75.5068 72.3026 75.5389 72.2123 75.5899 72.1325C75.6409 72.0527 75.7095 71.9857 75.7904 71.9365L88.9617 63.9926C89.1008 63.91 89.267 63.8858 89.4239 63.9255C89.5807 63.9652 89.7155 64.0654 89.7987 64.2044C89.8403 64.2726 89.8679 64.3484 89.8797 64.4275C89.8916 64.5065 89.8875 64.5872 89.8677 64.6646L86.023 79.5628C85.991 79.6864 85.9211 79.7969 85.8232 79.8788C85.7253 79.9607 85.6043 80.0099 85.477 80.0196C85.3498 80.0292 85.2228 79.9988 85.1137 79.9325C85.0046 79.8663 84.9189 79.7676 84.8686 79.6502L82.9417 75.1352C82.9246 75.0985 82.894 75.0698 82.8563 75.0553C82.8185 75.0407 82.7766 75.0413 82.7393 75.057C82.7146 75.0672 82.6937 75.0849 82.6796 75.1076L78.9176 80.1703C78.87 80.2346 78.8101 80.2888 78.7414 80.3299C78.6728 80.371 78.5967 80.3981 78.5175 80.4096H78.4301C78.2957 80.405 78.1665 80.3565 78.0622 80.2715Z" fill="#68417F"/>
<path d="M52.437 86.7656C52.437 85.545 52.9215 84.3743 53.784 83.5112C54.6464 82.6481 55.8162 82.1632 57.0359 82.1632H73.5921C74.8118 82.1632 75.9815 82.6481 76.844 83.5112C77.7065 84.3743 78.191 85.545 78.191 86.7656C78.191 87.9863 77.7065 89.1569 76.844 90.0201C75.9815 90.8832 74.8118 91.3681 73.5921 91.3681H57.0359C55.8162 91.3681 54.6464 90.8832 53.784 90.0201C52.9215 89.1569 52.437 87.9863 52.437 86.7656Z" fill="#68417F"/>
</g>
<defs>
<clipPath id="clip0">
<rect width="310" height="200" fill="white"/>
</clipPath>
</defs>
</svg>
