<svg width="290" height="178" viewBox="0 0 290 178" fill="none" xmlns="http://www.w3.org/2000/svg">
<g clip-path="url(#clip0)">
<path opacity="0.8" d="M289.243 140.02H0.75718C0.556363 140.02 0.363771 139.941 0.221772 139.799C0.0797735 139.657 0 139.464 0 139.264C0 139.063 0.0797735 138.87 0.221772 138.728C0.363771 138.586 0.556363 138.507 0.75718 138.507H289.243C289.444 138.507 289.636 138.586 289.778 138.728C289.92 138.87 290 139.063 290 139.264C290 139.464 289.92 139.657 289.778 139.799C289.636 139.941 289.444 140.02 289.243 140.02Z" fill="#3F3D56"/>
<path d="M150.724 40.8708C162.015 40.8708 171.168 31.7216 171.168 20.4354C171.168 9.14924 162.015 0 150.724 0C139.433 0 130.28 9.14924 130.28 20.4354C130.28 31.7216 139.433 40.8708 150.724 40.8708Z" fill="#2F2E41"/>
<path d="M131.303 151.623L130.757 142.359L166.246 135.858L167.042 149.534L131.303 151.623Z" fill="#68417F"/>
<path d="M133.021 135.585L134.066 153.447L122.815 154.106L121.111 124.989C122.589 124.903 124.07 125.109 125.468 125.595C126.867 126.081 128.156 126.837 129.262 127.821C130.368 128.805 131.269 129.997 131.914 131.329C132.559 132.662 132.935 134.108 133.021 135.585Z" fill="#2F2E41"/>
<path d="M146.734 151.532L140.835 158.707L110.374 139.392L119.074 128.811L146.734 151.532Z" fill="#68417F"/>
<path d="M134.581 162.136L145.939 148.316L154.646 155.468L136.133 178C133.824 176.101 132.364 173.364 132.073 170.389C131.782 167.415 132.684 164.446 134.581 162.136Z" fill="#2F2E41"/>
<path d="M129.766 118.2L125.737 137.182C125.646 137.619 125.652 138.07 125.755 138.504C125.859 138.938 126.057 139.344 126.335 139.693C126.614 140.041 126.966 140.324 127.367 140.521C127.767 140.717 128.206 140.823 128.652 140.83L168.253 141.474C168.651 141.48 169.046 141.407 169.416 141.261C169.785 141.114 170.123 140.896 170.408 140.619C170.694 140.342 170.922 140.012 171.079 139.647C171.237 139.282 171.321 138.889 171.327 138.492C171.335 138.299 171.319 138.106 171.282 137.916L167.821 118.298C167.697 117.598 167.33 116.964 166.784 116.507C166.239 116.05 165.55 115.8 164.838 115.801H132.734C132.039 115.799 131.364 116.037 130.824 116.474C130.283 116.911 129.91 117.52 129.766 118.2Z" fill="#2F2E41"/>
<path d="M136.338 124.883C136.338 124.883 97.7217 100.663 90.1499 113.53C86.364 119.963 88.2569 126.208 91.0963 130.84C93.7295 135.068 97.5145 138.457 102.007 140.611L133.309 155.93L144.667 143.82L137.095 137.008L136.338 124.883Z" fill="#2F2E41"/>
<path d="M156.025 121.099C156.025 121.099 205.998 106.718 196.155 133.965C186.312 161.213 149.21 150.617 149.21 150.617L145.424 139.264L158.296 130.181L156.025 121.099Z" fill="#2F2E41"/>
<path d="M150.982 43.6939C161.252 43.6939 169.578 35.3715 169.578 25.1053C169.578 14.8391 161.252 6.51663 150.982 6.51663C140.711 6.51663 132.385 14.8391 132.385 25.1053C132.385 35.3715 140.711 43.6939 150.982 43.6939Z" fill="#68417F"/>
<path d="M151.958 124.104C144.23 123.98 136.542 122.964 129.046 121.076L128.827 121.015L118.446 73.295C117.515 69.1018 118.152 64.713 120.238 60.9576C122.324 57.2022 125.713 54.3404 129.766 52.9126C142.284 48.4286 155.926 48.1628 168.609 52.1557C172.864 53.5276 176.445 56.4523 178.639 60.3465C180.832 64.2407 181.477 68.8183 180.444 73.1664L168.851 121L168.692 121.076C163.839 123.339 157.842 124.104 151.958 124.104Z" fill="#CCCCCC"/>
<path d="M138.019 127.805C138.355 126.862 138.874 125.995 139.546 125.253C140.219 124.511 141.031 123.91 141.936 123.482C142.841 123.055 143.822 122.81 144.822 122.762C145.822 122.714 146.822 122.864 147.764 123.203C148.182 123.355 148.588 123.543 148.975 123.763L169.419 106.037L171.267 119.963L151.58 134.669C150.54 136.229 148.964 137.352 147.151 137.827C145.337 138.302 143.412 138.096 141.741 137.246C140.07 136.397 138.769 134.964 138.084 133.22C137.399 131.475 137.379 129.54 138.026 127.782L138.019 127.805Z" fill="#FFB8B8"/>
<path d="M157.509 131.672C156.802 131.673 156.113 131.455 155.536 131.048C154.958 130.642 154.521 130.067 154.283 129.402L151.815 122.446C151.584 121.8 151.555 121.099 151.731 120.435C151.906 119.772 152.279 119.177 152.799 118.73L180.64 102.011L169.669 53.0564L169.949 52.9883C170.063 52.9883 181.307 50.3998 185.91 62.6837C189.136 71.2893 201.054 89.9915 200.236 102.631C200.077 105.159 199.07 107.559 197.377 109.443C195.684 111.328 193.405 112.586 190.908 113.015L159.568 130.968C158.978 131.423 158.254 131.671 157.509 131.672Z" fill="#CCCCCC"/>
<path d="M160.628 126.147C159.944 124.247 158.533 122.697 156.706 121.837C154.878 120.977 152.784 120.877 150.883 121.56C150.463 121.712 150.058 121.902 149.672 122.128L129.228 104.395L127.38 118.329L147.067 133.027C148.108 134.583 149.683 135.703 151.494 136.177C153.305 136.65 155.227 136.444 156.897 135.596C158.566 134.749 159.867 133.319 160.553 131.578C161.239 129.837 161.263 127.905 160.621 126.147H160.628Z" fill="#FFB8B8"/>
<path d="M143.19 131.672C142.445 131.672 141.721 131.424 141.131 130.968L107.52 114.529C105.023 114.1 102.743 112.841 101.051 110.957C99.3579 109.072 98.3504 106.672 98.1911 104.145C97.3431 91.5052 111.555 71.2893 114.789 62.6837C119.392 50.3998 130.636 52.958 130.75 52.9882L131.03 53.0564L117.787 103.524L147.892 118.715C148.414 119.161 148.788 119.756 148.965 120.419C149.142 121.082 149.114 121.784 148.884 122.431L146.424 129.402C146.244 129.913 145.944 130.373 145.548 130.743C145.153 131.113 144.674 131.383 144.152 131.528C143.84 131.623 143.516 131.671 143.19 131.672Z" fill="#CCCCCC"/>
<path d="M183.283 139.264H115.894C114.488 139.264 113.14 138.705 112.146 137.712C111.152 136.718 110.594 135.371 110.594 133.965V96.879C110.594 95.4739 111.152 94.1263 112.146 93.1327C113.14 92.1391 114.488 91.5809 115.894 91.5809H183.283C184.689 91.5809 186.037 92.1391 187.031 93.1327C188.025 94.1263 188.583 95.4739 188.583 96.879V133.965C188.583 135.371 188.025 136.718 187.031 137.712C186.037 138.705 184.689 139.264 183.283 139.264Z" fill="#415C77"/>
<path d="M149.588 119.963C152.098 119.963 154.132 117.93 154.132 115.422C154.132 112.914 152.098 110.881 149.588 110.881C147.079 110.881 145.045 112.914 145.045 115.422C145.045 117.93 147.079 119.963 149.588 119.963Z" fill="white"/>
<path d="M132.204 24.3408C131.098 21.548 132.908 18.2178 135.588 16.863C138.269 15.5082 141.509 15.7655 144.379 16.6586C146.787 17.4155 149.051 18.5735 151.406 19.4893C153.725 20.5161 156.257 20.9679 158.788 20.8063C161.295 20.5187 163.793 19.1109 164.846 16.81C165.898 14.5091 165.186 11.5119 163.543 9.46083C161.8 7.48719 159.543 6.03568 157.024 5.26779C151.489 3.32264 145.098 3.26209 139.965 6.10034C134.831 8.93859 131.333 14.9633 132.393 20.7306" fill="#2F2E41"/>
<path d="M24.7371 131.173C25.6667 121.098 28.2505 111.245 32.3846 102.011C33.5355 99.4372 34.7975 96.9143 36.1705 94.4419C36.2284 94.3138 36.2367 94.1688 36.1938 94.035C36.151 93.9012 36.06 93.788 35.9384 93.7174C35.8169 93.6467 35.6735 93.6237 35.5359 93.6526C35.3983 93.6816 35.2764 93.7606 35.1937 93.8742C30.165 102.825 26.6426 112.542 24.7674 122.635C24.2626 125.451 23.8714 128.286 23.5937 131.142C23.5256 131.899 24.6538 131.899 24.7219 131.142L24.7371 131.173Z" fill="#415C77" fill-opacity="0.25"/>
<path d="M38.9039 96.2886C42.839 96.2886 46.029 93.0999 46.029 89.1665C46.029 85.2331 42.839 82.0444 38.9039 82.0444C34.9689 82.0444 31.7789 85.2331 31.7789 89.1665C31.7789 93.0999 34.9689 96.2886 38.9039 96.2886Z" fill="#415C77"/>
<path d="M25.464 131.362C26.0705 124.826 27.746 118.434 30.4235 112.44C31.1807 110.767 31.9909 109.14 32.8919 107.543C32.9144 107.501 32.9283 107.455 32.9328 107.407C32.9374 107.36 32.9325 107.312 32.9184 107.266C32.9043 107.22 32.8814 107.178 32.8509 107.141C32.8203 107.104 32.7828 107.074 32.7405 107.051C32.6598 107.007 32.565 106.995 32.476 107.019C32.387 107.043 32.3108 107.101 32.2635 107.18C29.0001 112.984 26.7132 119.284 25.4943 125.829C25.1611 127.653 24.9037 129.5 24.7371 131.347C24.6917 131.831 25.4186 131.831 25.464 131.362Z" fill="#415C77" fill-opacity="0.25"/>
<path d="M34.6562 108.739C37.2112 108.739 39.2825 106.669 39.2825 104.115C39.2825 101.561 37.2112 99.4902 34.6562 99.4902C32.1011 99.4902 30.0298 101.561 30.0298 104.115C30.0298 106.669 32.1011 108.739 34.6562 108.739Z" fill="#415C77"/>
<path d="M24.5175 130.93C20.9802 125.405 18.3713 119.338 16.7942 112.97C16.3551 111.191 15.9992 109.405 15.7266 107.596C15.7095 107.505 15.6577 107.423 15.582 107.368C15.5063 107.314 15.4125 107.29 15.3201 107.303C15.2276 107.316 15.1436 107.363 15.0854 107.436C15.0271 107.509 14.9992 107.602 15.0073 107.695C16.0078 114.275 18.0823 120.647 21.148 126.556C22.0011 128.206 22.9325 129.813 23.942 131.377C24.1995 131.771 24.7749 131.324 24.5175 130.93Z" fill="#415C77" fill-opacity="0.25"/>
<path d="M15.0547 108.418C17.6096 108.396 19.6628 106.308 19.6405 103.754C19.6182 101.2 17.5289 99.1476 14.9739 99.1698C12.4189 99.1921 10.3658 101.281 10.3881 103.834C10.4104 106.388 12.4997 108.441 15.0547 108.418Z" fill="#415C77"/>
<path d="M10.3431 135.017V125.935C10.3451 125.032 10.7047 124.167 11.3433 123.529C11.9818 122.891 12.8473 122.531 13.7504 122.529H34.9514C35.8551 122.529 36.7218 122.888 37.3608 123.527C37.9998 124.165 38.3587 125.032 38.3587 125.935V135.017C38.3597 135.465 38.2723 135.908 38.1014 136.322C37.9305 136.736 37.6796 137.112 37.363 137.428C37.0464 137.745 36.6704 137.995 36.2565 138.166C35.8427 138.337 35.3992 138.424 34.9514 138.423H13.7504C12.8473 138.421 11.9818 138.062 11.3433 137.424C10.7047 136.785 10.3451 135.92 10.3431 135.017Z" fill="#415C77"/>
<path d="M238.042 145.621C238.042 150.594 234.007 152.857 229.024 152.857C224.042 152.857 220.014 150.586 220.014 145.621C220.014 140.656 222.013 134.836 229.024 136.834C236.066 133.799 238.042 140.611 238.042 145.621Z" fill="#FF6584"/>
<path d="M228.608 139.165C228.258 139.163 227.921 139.035 227.658 138.804C227.395 138.573 227.224 138.255 227.177 137.909C226.881 135.426 225.238 130.567 224.542 128.592C224.471 128.396 224.449 128.186 224.478 127.981C224.507 127.775 224.586 127.579 224.708 127.411C224.816 127.27 224.951 127.152 225.104 127.063C225.258 126.974 225.427 126.916 225.603 126.893C225.779 126.87 225.958 126.882 226.129 126.928C226.3 126.974 226.461 127.053 226.601 127.161C226.645 127.192 226.686 127.228 226.722 127.267C226.846 127.394 226.941 127.545 227.002 127.71C227.064 127.876 227.089 128.052 227.078 128.228C226.942 130.764 228.79 134.866 229.91 137.084C230.016 137.292 230.069 137.524 230.065 137.758C230.062 137.992 230.001 138.221 229.888 138.426C229.775 138.631 229.614 138.806 229.419 138.934C229.224 139.063 229 139.142 228.767 139.165H228.608Z" fill="#3F3D56"/>
<path d="M235.286 133.572C238.413 131.014 235.96 125.769 232.038 126.76C231.512 126.889 231.027 127.149 230.629 127.517C228.229 129.788 227.851 135.593 227.851 135.593C227.851 135.593 232.098 136.183 235.286 133.572Z" fill="#3F3D56"/>
</g>
<defs>
<clipPath id="clip0">
<rect width="290" height="178" fill="white"/>
</clipPath>
</defs>
</svg>
