<svg width="302" height="218" viewBox="0 0 302 218" fill="none" xmlns="http://www.w3.org/2000/svg">
<path d="M13.9579 44.386C16.6156 44.386 18.7701 42.2078 18.7701 39.5209C18.7701 36.834 16.6156 34.6558 13.9579 34.6558C11.3002 34.6558 9.14569 36.834 9.14569 39.5209C9.14569 42.2078 11.3002 44.386 13.9579 44.386Z" fill="#415C77" fill-opacity="0.5"/>
<path d="M28.3944 44.386C31.0521 44.386 33.2066 42.2078 33.2066 39.5209C33.2066 36.834 31.0521 34.6558 28.3944 34.6558C25.7367 34.6558 23.5822 36.834 23.5822 39.5209C23.5822 42.2078 25.7367 44.386 28.3944 44.386Z" fill="#415C77" fill-opacity="0.5"/>
<path d="M42.831 44.386C45.4887 44.386 47.6432 42.2078 47.6432 39.5209C47.6432 36.834 45.4887 34.6558 42.831 34.6558C40.1733 34.6558 38.0188 36.834 38.0188 39.5209C38.0188 42.2078 40.1733 44.386 42.831 44.386Z" fill="#415C77" fill-opacity="0.5"/>
<path d="M57.2675 44.386C59.9252 44.386 62.0797 42.2078 62.0797 39.5209C62.0797 36.834 59.9252 34.6558 57.2675 34.6558C54.6098 34.6558 52.4554 36.834 52.4554 39.5209C52.4554 42.2078 54.6098 44.386 57.2675 44.386Z" fill="#415C77" fill-opacity="0.5"/>
<path d="M71.7041 44.386C74.3618 44.386 76.5163 42.2078 76.5163 39.5209C76.5163 36.834 74.3618 34.6558 71.7041 34.6558C69.0464 34.6558 66.8919 36.834 66.8919 39.5209C66.8919 42.2078 69.0464 44.386 71.7041 44.386Z" fill="#415C77" fill-opacity="0.5"/>
<path d="M86.1407 44.386C88.7984 44.386 90.9529 42.2078 90.9529 39.5209C90.9529 36.834 88.7984 34.6558 86.1407 34.6558C83.483 34.6558 81.3285 36.834 81.3285 39.5209C81.3285 42.2078 83.483 44.386 86.1407 44.386Z" fill="#415C77" fill-opacity="0.5"/>
<path d="M100.577 44.386C103.235 44.386 105.389 42.2078 105.389 39.5209C105.389 36.834 103.235 34.6558 100.577 34.6558C97.9195 34.6558 95.765 36.834 95.765 39.5209C95.765 42.2078 97.9195 44.386 100.577 44.386Z" fill="#415C77" fill-opacity="0.5"/>
<path d="M111.697 45.4455H2.83788C2.31869 45.4448 1.82094 45.236 1.45382 44.8649C1.0867 44.4937 0.880188 43.9905 0.879578 43.4656V35.5763C0.880187 35.0514 1.0867 34.5482 1.45382 34.177C1.82095 33.8058 2.31869 33.5971 2.83788 33.5964H111.697C112.216 33.5971 112.714 33.8058 113.081 34.177C113.448 34.5482 113.655 35.0514 113.656 35.5763V43.4656C113.655 43.9905 113.448 44.4937 113.081 44.8649C112.714 45.236 112.216 45.4448 111.697 45.4455ZM2.83788 34.3884C2.52636 34.3887 2.2277 34.514 2.00742 34.7367C1.78714 34.9594 1.66324 35.2613 1.6629 35.5763V43.4656C1.66324 43.7806 1.78714 44.0825 2.00742 44.3052C2.2277 44.5279 2.52636 44.6532 2.83788 44.6535H111.697C112.009 44.6532 112.307 44.5279 112.528 44.3052C112.748 44.0825 112.872 43.7806 112.872 43.4656V35.5763C112.872 35.2613 112.748 34.9594 112.528 34.7367C112.307 34.514 112.009 34.3887 111.697 34.3884L2.83788 34.3884Z" fill="#415C77" fill-opacity="0.5"/>
<path d="M26.1345 1.13753C26.4328 1.13787 26.7188 1.25783 26.9297 1.47108C27.1406 1.68433 27.2593 1.97346 27.2596 2.27504V26.9251C27.2593 27.2267 27.1406 27.5158 26.9297 27.7291C26.7188 27.9423 26.4328 28.0623 26.1345 28.0626H2.25037C1.95207 28.0623 1.66608 27.9423 1.45514 27.7291C1.24421 27.5158 1.12556 27.2267 1.12522 26.9251V2.27507C1.12556 1.97348 1.24421 1.68435 1.45514 1.4711C1.66608 1.25785 1.95207 1.13789 2.25037 1.13755H26.1345V1.13753ZM26.1345 1.63387e-05H2.25037C1.65355 1.63387e-05 1.08116 0.239709 0.659143 0.666367C0.237123 1.09302 3.05176e-05 1.6717 3.05176e-05 2.27508V26.9251C3.05176e-05 27.5285 0.237123 28.1072 0.659143 28.5338C1.08116 28.9605 1.65355 29.2002 2.25037 29.2002H26.1345C26.7313 29.2002 27.3037 28.9605 27.7257 28.5338C28.1477 28.1072 28.3848 27.5285 28.3848 26.9251V2.27507C28.3848 1.67168 28.1477 1.09301 27.7257 0.66635C27.3037 0.239693 26.7313 9.46617e-07 26.1345 0V1.63387e-05Z" fill="#415C77" fill-opacity="0.5"/>
<path d="M22.409 7.61696H6.47375C6.39958 7.61742 6.32606 7.60305 6.2574 7.57467C6.18875 7.54629 6.12632 7.50447 6.07372 7.45161C6.02111 7.39875 5.97936 7.3359 5.95087 7.26667C5.92238 7.19743 5.90771 7.12319 5.90771 7.0482C5.90771 6.97322 5.92238 6.89897 5.95087 6.82974C5.97936 6.7605 6.02111 6.69765 6.07372 6.64479C6.12632 6.59193 6.18875 6.55011 6.2574 6.52173C6.32606 6.49336 6.39958 6.47898 6.47375 6.47944H22.409C22.4832 6.47898 22.5567 6.49336 22.6254 6.52173C22.694 6.55011 22.7565 6.59193 22.8091 6.64479C22.8617 6.69765 22.9034 6.7605 22.9319 6.82974C22.9604 6.89897 22.9751 6.97322 22.9751 7.0482C22.9751 7.12319 22.9604 7.19743 22.9319 7.26667C22.9034 7.3359 22.8617 7.39875 22.8091 7.45161C22.7565 7.50447 22.694 7.54629 22.6254 7.57467C22.5567 7.60305 22.4832 7.61742 22.409 7.61696Z" fill="#6A338A"/>
<path d="M22.409 11.6447H6.47375C6.39958 11.6452 6.32606 11.6308 6.2574 11.6024C6.18875 11.5741 6.12632 11.5322 6.07372 11.4794C6.02111 11.4265 5.97936 11.3637 5.95087 11.2944C5.92238 11.2252 5.90771 11.151 5.90771 11.076C5.90771 11.001 5.92238 10.9267 5.95087 10.8575C5.97936 10.7883 6.02111 10.7254 6.07372 10.6726C6.12632 10.6197 6.18875 10.5779 6.2574 10.5495C6.32606 10.5211 6.39958 10.5068 6.47375 10.5072H22.409C22.4832 10.5068 22.5567 10.5211 22.6254 10.5495C22.694 10.5779 22.7565 10.6197 22.8091 10.6726C22.8617 10.7254 22.9034 10.7883 22.9319 10.8575C22.9604 10.9267 22.9751 11.001 22.9751 11.076C22.9751 11.151 22.9604 11.2252 22.9319 11.2944C22.9034 11.3637 22.8617 11.4265 22.8091 11.4794C22.7565 11.5322 22.694 11.5741 22.6254 11.6024C22.5567 11.6308 22.4832 11.6452 22.409 11.6447Z" fill="#6A338A"/>
<path d="M22.409 15.6722H6.47375C6.39958 15.6727 6.32606 15.6583 6.2574 15.6299C6.18875 15.6015 6.12632 15.5597 6.07372 15.5068C6.02111 15.454 5.97936 15.3911 5.95087 15.3219C5.92238 15.2527 5.90771 15.1784 5.90771 15.1034C5.90771 15.0284 5.92238 14.9542 5.95087 14.885C5.97936 14.8157 6.02111 14.7529 6.07372 14.7C6.12632 14.6472 6.18875 14.6053 6.2574 14.577C6.32606 14.5486 6.39958 14.5342 6.47375 14.5347H22.409C22.4832 14.5342 22.5567 14.5486 22.6254 14.577C22.694 14.6053 22.7565 14.6472 22.8091 14.7C22.8617 14.7529 22.9034 14.8157 22.9319 14.885C22.9604 14.9542 22.9751 15.0284 22.9751 15.1034C22.9751 15.1784 22.9604 15.2527 22.9319 15.3219C22.9034 15.3911 22.8617 15.454 22.8091 15.5068C22.7565 15.5597 22.694 15.6015 22.6254 15.6299C22.5567 15.6583 22.4832 15.6727 22.409 15.6722Z" fill="#6A338A"/>
<path d="M22.409 19.6999H6.47375C6.39958 19.7004 6.32606 19.686 6.2574 19.6576C6.18875 19.6292 6.12632 19.5874 6.07372 19.5346C6.02111 19.4817 5.97936 19.4188 5.95087 19.3496C5.92238 19.2804 5.90771 19.2061 5.90771 19.1311C5.90771 19.0562 5.92238 18.9819 5.95087 18.9127C5.97936 18.8434 6.02111 18.7806 6.07372 18.7277C6.12632 18.6749 6.18875 18.633 6.2574 18.6047C6.32606 18.5763 6.39958 18.5619 6.47375 18.5624H22.409C22.4832 18.5619 22.5567 18.5763 22.6254 18.6047C22.694 18.633 22.7565 18.6749 22.8091 18.7277C22.8617 18.7806 22.9034 18.8434 22.9319 18.9127C22.9604 18.9819 22.9751 19.0562 22.9751 19.1311C22.9751 19.2061 22.9604 19.2804 22.9319 19.3496C22.9034 19.4188 22.8617 19.4817 22.8091 19.5346C22.7565 19.5874 22.694 19.6292 22.6254 19.6576C22.5567 19.686 22.4832 19.7004 22.409 19.6999Z" fill="#6A338A"/>
<path d="M22.409 23.7277H6.47375C6.32454 23.7277 6.18144 23.6678 6.07594 23.5611C5.97043 23.4544 5.91116 23.3098 5.91116 23.1589C5.91116 23.0081 5.97043 22.8634 6.07594 22.7567C6.18144 22.6501 6.32454 22.5901 6.47375 22.5901H22.409C22.5583 22.5901 22.7013 22.6501 22.8068 22.7567C22.9124 22.8634 22.9716 23.0081 22.9716 23.1589C22.9716 23.3098 22.9124 23.4544 22.8068 23.5611C22.7013 23.6678 22.5583 23.7277 22.409 23.7277Z" fill="#6A338A"/>
<path d="M107.709 1.13753C108.007 1.13787 108.293 1.25783 108.504 1.47108C108.715 1.68433 108.834 1.97346 108.834 2.27504V26.9251C108.834 27.2267 108.715 27.5158 108.504 27.7291C108.293 27.9423 108.007 28.0623 107.709 28.0626H83.825C83.5267 28.0623 83.2407 27.9423 83.0298 27.7291C82.8189 27.5158 82.7002 27.2267 82.6999 26.9251V2.27507C82.7002 1.97348 82.8189 1.68435 83.0298 1.4711C83.2407 1.25785 83.5267 1.13789 83.825 1.13755H107.709V1.13753ZM107.709 1.63387e-05H83.825C83.2282 1.63387e-05 82.6558 0.239709 82.2338 0.666367C81.8118 1.09302 81.5747 1.6717 81.5747 2.27508V26.9251C81.5747 27.5285 81.8118 28.1072 82.2338 28.5338C82.6558 28.9605 83.2282 29.2002 83.825 29.2002H107.709C108.306 29.2002 108.878 28.9605 109.3 28.5338C109.722 28.1072 109.959 27.5285 109.959 26.9251V2.27507C109.959 1.67168 109.722 1.09301 109.3 0.66635C108.878 0.239693 108.306 0 107.709 0V1.63387e-05Z" fill="#415C77" fill-opacity="0.5"/>
<path d="M103.984 7.61696H88.0484C87.9743 7.61742 87.9007 7.60305 87.8321 7.57467C87.7634 7.54629 87.701 7.50447 87.6484 7.45161C87.5958 7.39875 87.554 7.3359 87.5255 7.26667C87.4971 7.19743 87.4824 7.12319 87.4824 7.0482C87.4824 6.97322 87.4971 6.89897 87.5255 6.82974C87.554 6.7605 87.5958 6.69765 87.6484 6.64479C87.701 6.59193 87.7634 6.55011 87.8321 6.52173C87.9007 6.49336 87.9743 6.47898 88.0484 6.47944H103.984C104.132 6.48036 104.275 6.54069 104.379 6.64726C104.484 6.75382 104.543 6.89796 104.543 7.0482C104.543 7.19844 104.484 7.34258 104.379 7.44914C104.275 7.5557 104.132 7.61603 103.984 7.61696H103.984Z" fill="#6A338A"/>
<path d="M103.984 11.6447H88.0484C87.9743 11.6452 87.9007 11.6308 87.8321 11.6024C87.7634 11.5741 87.701 11.5322 87.6484 11.4794C87.5958 11.4265 87.554 11.3637 87.5255 11.2944C87.4971 11.2252 87.4824 11.151 87.4824 11.076C87.4824 11.001 87.4971 10.9267 87.5255 10.8575C87.554 10.7883 87.5958 10.7254 87.6484 10.6726C87.701 10.6197 87.7634 10.5779 87.8321 10.5495C87.9007 10.5211 87.9743 10.5068 88.0484 10.5072H103.984C104.132 10.5081 104.275 10.5685 104.379 10.675C104.484 10.7816 104.543 10.9257 104.543 11.076C104.543 11.2262 104.484 11.3704 104.379 11.4769C104.275 11.5835 104.132 11.6438 103.984 11.6447H103.984Z" fill="#6A338A"/>
<path d="M103.984 15.6722H88.0484C87.9743 15.6727 87.9007 15.6583 87.8321 15.6299C87.7634 15.6015 87.701 15.5597 87.6484 15.5068C87.5958 15.454 87.554 15.3911 87.5255 15.3219C87.4971 15.2527 87.4824 15.1784 87.4824 15.1034C87.4824 15.0284 87.4971 14.9542 87.5255 14.885C87.554 14.8157 87.5958 14.7529 87.6484 14.7C87.701 14.6472 87.7634 14.6053 87.8321 14.577C87.9007 14.5486 87.9743 14.5342 88.0484 14.5347H103.984C104.132 14.5356 104.275 14.5959 104.379 14.7025C104.484 14.8091 104.543 14.9532 104.543 15.1034C104.543 15.2537 104.484 15.3978 104.379 15.5044C104.275 15.6109 104.132 15.6713 103.984 15.6722H103.984Z" fill="#6A338A"/>
<path d="M103.984 19.6999H88.0484C87.9743 19.7004 87.9007 19.686 87.8321 19.6576C87.7634 19.6292 87.701 19.5874 87.6484 19.5346C87.5958 19.4817 87.554 19.4188 87.5255 19.3496C87.4971 19.2804 87.4824 19.2061 87.4824 19.1311C87.4824 19.0562 87.4971 18.9819 87.5255 18.9127C87.554 18.8434 87.5958 18.7806 87.6484 18.7277C87.701 18.6749 87.7634 18.633 87.8321 18.6047C87.9007 18.5763 87.9743 18.5619 88.0484 18.5624H103.984C104.132 18.5633 104.275 18.6236 104.379 18.7302C104.484 18.8368 104.543 18.9809 104.543 19.1311C104.543 19.2814 104.484 19.4255 104.379 19.5321C104.275 19.6387 104.132 19.699 103.984 19.6999H103.984Z" fill="#6A338A"/>
<path d="M103.984 23.7277H88.0484C87.8992 23.7277 87.7561 23.6678 87.6506 23.5611C87.5451 23.4544 87.4858 23.3098 87.4858 23.1589C87.4858 23.0081 87.5451 22.8634 87.6506 22.7567C87.7561 22.6501 87.8992 22.5901 88.0484 22.5901H103.984C104.133 22.5901 104.276 22.6501 104.382 22.7567C104.487 22.8634 104.546 23.0081 104.546 23.1589C104.546 23.3098 104.487 23.4544 104.382 23.5611C104.276 23.6678 104.133 23.7277 103.984 23.7277H103.984Z" fill="#6A338A"/>
<path d="M188.888 48.5339C189.186 48.5342 189.472 48.6542 189.683 48.8675C189.894 49.0807 190.012 49.3698 190.013 49.6714V74.3215C190.012 74.623 189.894 74.9122 189.683 75.1254C189.472 75.3387 189.186 75.4586 188.888 75.459H165.003C164.705 75.4586 164.419 75.3387 164.208 75.1254C163.997 74.9122 163.879 74.623 163.878 74.3215V49.6714C163.879 49.3699 163.997 49.0807 164.208 48.8675C164.419 48.6542 164.705 48.5343 165.003 48.5339H188.888V48.5339ZM188.888 47.3964H165.003C164.407 47.3964 163.834 47.6361 163.412 48.0628C162.99 48.4894 162.753 49.0681 162.753 49.6715V74.3215C162.753 74.9249 162.99 75.5036 163.412 75.9302C163.834 76.3569 164.407 76.5966 165.003 76.5966H188.888C189.484 76.5966 190.057 76.3569 190.479 75.9302C190.901 75.5036 191.138 74.9249 191.138 74.3215V49.6714C191.138 49.068 190.901 48.4894 190.479 48.0627C190.057 47.6361 189.484 47.3964 188.888 47.3964V47.3964Z" fill="#6A338A"/>
<path d="M185.162 55.0133H169.227C169.153 55.0138 169.079 54.9994 169.011 54.971C168.942 54.9427 168.879 54.9008 168.827 54.848C168.774 54.7951 168.732 54.7323 168.704 54.663C168.675 54.5938 168.661 54.5195 168.661 54.4446C168.661 54.3696 168.675 54.2953 168.704 54.2261C168.732 54.1569 168.774 54.094 168.827 54.0412C168.879 53.9883 168.942 53.9465 169.011 53.9181C169.079 53.8897 169.153 53.8753 169.227 53.8758H185.162C185.311 53.8767 185.453 53.9371 185.558 54.0436C185.662 54.1502 185.721 54.2943 185.721 54.4446C185.721 54.5948 185.662 54.7389 185.558 54.8455C185.453 54.9521 185.311 55.0124 185.162 55.0133Z" fill="#6A338A"/>
<path d="M185.162 59.041H169.227C169.078 59.041 168.935 58.9811 168.829 58.8744C168.724 58.7678 168.664 58.6231 168.664 58.4723C168.664 58.3214 168.724 58.1768 168.829 58.0701C168.935 57.9634 169.078 57.9035 169.227 57.9035H185.162C185.311 57.9035 185.454 57.9634 185.56 58.0701C185.665 58.1768 185.725 58.3214 185.725 58.4723C185.725 58.6231 185.665 58.7678 185.56 58.8744C185.454 58.9811 185.311 59.041 185.162 59.041Z" fill="#6A338A"/>
<path d="M185.162 63.0685H169.227C169.153 63.0689 169.079 63.0544 169.011 63.026C168.942 62.9976 168.88 62.9558 168.827 62.9029C168.775 62.8501 168.733 62.7872 168.705 62.718C168.676 62.6489 168.661 62.5747 168.661 62.4997C168.661 62.4248 168.676 62.3506 168.705 62.2814C168.733 62.2122 168.775 62.1494 168.827 62.0965C168.88 62.0437 168.942 62.0019 169.011 61.9734C169.079 61.945 169.153 61.9306 169.227 61.931H185.162C185.311 61.9319 185.453 61.9922 185.558 62.0988C185.663 62.2053 185.721 62.3495 185.721 62.4997C185.721 62.65 185.663 62.7941 185.558 62.9007C185.453 63.0072 185.311 63.0676 185.162 63.0685Z" fill="#6A338A"/>
<path d="M185.162 67.0962H169.227C169.153 67.0967 169.079 67.0823 169.011 67.054C168.942 67.0256 168.879 66.9838 168.827 66.9309C168.774 66.878 168.732 66.8152 168.704 66.746C168.675 66.6767 168.661 66.6025 168.661 66.5275C168.661 66.4525 168.675 66.3783 168.704 66.309C168.732 66.2398 168.774 66.177 168.827 66.1241C168.879 66.0712 168.942 66.0294 169.011 66.001C169.079 65.9727 169.153 65.9583 169.227 65.9588H185.162C185.311 65.9597 185.453 66.02 185.558 66.1266C185.662 66.2331 185.721 66.3773 185.721 66.5275C185.721 66.6777 185.662 66.8219 185.558 66.9284C185.453 67.035 185.311 67.0953 185.162 67.0962Z" fill="#6A338A"/>
<path d="M185.162 71.124H169.227C169.153 71.1244 169.079 71.1101 169.011 71.0817C168.942 71.0533 168.879 71.0115 168.827 70.9586C168.774 70.9058 168.732 70.8429 168.704 70.7737C168.675 70.7044 168.661 70.6302 168.661 70.5552C168.661 70.4802 168.675 70.406 168.704 70.3368C168.732 70.2675 168.774 70.2047 168.827 70.1518C168.879 70.0989 168.942 70.0571 169.011 70.0287C169.079 70.0004 169.153 69.986 169.227 69.9865H185.162C185.311 69.9874 185.453 70.0477 185.558 70.1543C185.662 70.2608 185.721 70.405 185.721 70.5552C185.721 70.7055 185.662 70.8496 185.558 70.9562C185.453 71.0627 185.311 71.123 185.162 71.124Z" fill="#6A338A"/>
<path d="M67.2343 29.2002H42.7249C42.062 29.1994 41.4266 28.9328 40.9579 28.459C40.4893 27.9852 40.2256 27.3428 40.2248 26.6727V8.94203C40.2255 8.27189 40.4892 7.62941 40.9579 7.15552C41.4265 6.68163 42.062 6.41505 42.7249 6.41425H67.2343C67.8972 6.41499 68.5328 6.68154 69.0015 7.15543C69.4703 7.62932 69.7339 8.27185 69.7347 8.94203V26.6727C69.7339 27.3428 69.4702 27.9853 69.0014 28.4591C68.5327 28.9329 67.8972 29.1994 67.2343 29.2002ZM42.7249 7.55178C42.3603 7.55223 42.0108 7.69886 41.7531 7.9595C41.4953 8.22013 41.3504 8.57348 41.35 8.94203V26.6727C41.3504 27.0412 41.4954 27.3945 41.7531 27.6551C42.0109 27.9157 42.3603 28.0622 42.7249 28.0626H67.2343C67.5989 28.0622 67.9484 27.9157 68.2062 27.6551C68.464 27.3945 68.609 27.0412 68.6095 26.6727V8.94203C68.609 8.57345 68.464 8.2201 68.2062 7.95947C67.9484 7.69884 67.5989 7.55222 67.2343 7.55178H42.7249Z" fill="#415C77" fill-opacity="0.5"/>
<path d="M62.9474 14.3483H47.0121C46.8635 14.3474 46.7213 14.2871 46.6165 14.1805C46.5117 14.074 46.4529 13.9298 46.4529 13.7796C46.4529 13.6293 46.5117 13.4852 46.6165 13.3786C46.7213 13.2721 46.8635 13.2117 47.0121 13.2108H62.9474C63.0216 13.2104 63.0951 13.2247 63.1637 13.2531C63.2324 13.2815 63.2948 13.3233 63.3474 13.3762C63.4 13.429 63.4418 13.4919 63.4703 13.5611C63.4988 13.6304 63.5134 13.7046 63.5134 13.7796C63.5134 13.8546 63.4988 13.9288 63.4703 13.998C63.4418 14.0673 63.4 14.1301 63.3474 14.183C63.2948 14.2359 63.2324 14.2777 63.1637 14.3061C63.0951 14.3344 63.0216 14.3488 62.9474 14.3483Z" fill="#6A338A"/>
<path d="M62.9474 18.3761H47.0121C46.8635 18.3752 46.7213 18.3149 46.6165 18.2083C46.5117 18.1017 46.4529 17.9576 46.4529 17.8074C46.4529 17.6571 46.5117 17.513 46.6165 17.4064C46.7213 17.2998 46.8635 17.2395 47.0121 17.2386H62.9474C63.0216 17.2381 63.0951 17.2525 63.1637 17.2809C63.2324 17.3093 63.2948 17.3511 63.3474 17.4039C63.4 17.4568 63.4418 17.5197 63.4703 17.5889C63.4988 17.6581 63.5134 17.7324 63.5134 17.8074C63.5134 17.8823 63.4988 17.9566 63.4703 18.0258C63.4418 18.0951 63.4 18.1579 63.3474 18.2108C63.2948 18.2636 63.2324 18.3054 63.1637 18.3338C63.0951 18.3622 63.0216 18.3766 62.9474 18.3761Z" fill="#6A338A"/>
<path d="M62.9474 22.4036H47.0121C46.8635 22.4027 46.7213 22.3423 46.6165 22.2358C46.5117 22.1292 46.4529 21.9851 46.4529 21.8348C46.4529 21.6846 46.5117 21.5404 46.6165 21.4339C46.7213 21.3273 46.8635 21.267 47.0121 21.2661H62.9474C63.0216 21.2656 63.0951 21.28 63.1637 21.3083C63.2324 21.3367 63.2948 21.3785 63.3474 21.4314C63.4 21.4843 63.4418 21.5471 63.4703 21.6164C63.4988 21.6856 63.5134 21.7598 63.5134 21.8348C63.5134 21.9098 63.4988 21.984 63.4703 22.0533C63.4418 22.1225 63.4 22.1854 63.3474 22.2382C63.2948 22.2911 63.2324 22.3329 63.1637 22.3613C63.0951 22.3897 63.0216 22.404 62.9474 22.4036Z" fill="#6A338A"/>
<path d="M148.561 39.0253L125.021 32.1238C124.385 31.9364 123.848 31.5014 123.528 30.9144C123.209 30.3273 123.133 29.6361 123.316 28.9923L128.201 11.9633C128.387 11.3199 128.817 10.777 129.397 10.4539C129.978 10.1307 130.662 10.0536 131.299 10.2395L154.838 17.141C155.475 17.3284 156.012 17.7634 156.331 18.3505C156.651 18.9376 156.727 19.629 156.543 20.2728L151.659 37.3018C151.473 37.9452 151.043 38.488 150.462 38.8111C149.881 39.1342 149.198 39.2112 148.561 39.0253ZM130.985 11.332C130.635 11.2298 130.259 11.2722 129.94 11.45C129.62 11.6277 129.384 11.9263 129.282 12.2801L124.397 29.3091C124.296 29.6632 124.338 30.0433 124.514 30.3662C124.689 30.6891 124.985 30.9282 125.335 31.0313L148.874 37.9328C149.225 38.0351 149.601 37.9927 149.92 37.815C150.239 37.6374 150.476 37.3389 150.578 36.985L155.463 19.956C155.564 19.6019 155.522 19.2217 155.346 18.8988C155.17 18.5759 154.875 18.3366 154.525 18.2335L130.985 11.332Z" fill="#415C77" fill-opacity="0.5"/>
<path d="M148.535 23.554L133.23 19.0669C133.087 19.0246 132.967 18.9267 132.895 18.7947C132.823 18.6626 132.806 18.5072 132.848 18.3625C132.889 18.2178 132.986 18.0957 133.116 18.0229C133.247 17.9501 133.401 17.9327 133.544 17.9743L148.849 22.4615C148.992 22.5035 149.113 22.6014 149.185 22.7335C149.257 22.8657 149.274 23.0213 149.232 23.1662C149.191 23.3111 149.094 23.4333 148.963 23.506C148.832 23.5788 148.678 23.596 148.535 23.554H148.535Z" fill="#6A338A"/>
<path d="M147.426 27.4224L132.121 22.9352C132.05 22.9144 131.984 22.8797 131.926 22.833C131.868 22.7863 131.82 22.7286 131.785 22.6632C131.749 22.5978 131.727 22.5259 131.718 22.4516C131.71 22.3774 131.717 22.3023 131.737 22.2305C131.758 22.1588 131.792 22.0919 131.838 22.0336C131.884 21.9752 131.942 21.9267 132.006 21.8907C132.071 21.8547 132.142 21.8319 132.216 21.8237C132.289 21.8154 132.363 21.8219 132.434 21.8427L147.739 26.3299C147.882 26.3721 148.003 26.47 148.074 26.602C148.146 26.7341 148.163 26.8895 148.122 27.0342C148.08 27.1789 147.983 27.301 147.853 27.3738C147.722 27.4466 147.569 27.464 147.426 27.4224Z" fill="#6A338A"/>
<path d="M146.316 31.2905L131.011 26.8033C130.868 26.7611 130.748 26.6632 130.676 26.5311C130.604 26.3991 130.587 26.2436 130.629 26.099C130.67 25.9543 130.767 25.8321 130.897 25.7594C131.028 25.6866 131.181 25.6691 131.325 25.7108L146.629 30.198C146.773 30.24 146.894 30.3378 146.966 30.47C147.037 30.6021 147.055 30.7577 147.013 30.9026C146.971 31.0475 146.875 31.1698 146.744 31.2425C146.613 31.3152 146.459 31.3325 146.316 31.2905Z" fill="#6A338A"/>
<path d="M302 216.929H55.1122V218H302V216.929Z" fill="#415C77" fill-opacity="0.5"/>
<path d="M198.46 215.255H158.312L159.673 197.369H197.099L198.46 215.255Z" fill="#415C77" fill-opacity="0.5"/>
<path d="M201.182 213.192H156.271V217.319H201.182V213.192Z" fill="#415C77" fill-opacity="0.5"/>
<path d="M255.279 82.138H101.833C100.751 82.138 99.7121 82.5729 98.9465 83.347C98.1808 84.1211 97.7506 85.1709 97.7506 86.2657V180.858H259.362V86.2657C259.362 85.7236 259.256 85.1869 259.051 84.6861C258.846 84.1853 258.545 83.7303 258.166 83.347C257.787 82.9637 257.337 82.6596 256.841 82.4522C256.346 82.2448 255.815 82.138 255.279 82.138H255.279Z" fill="black" fill-opacity="0.8"/>
<path d="M97.7506 180.858V196.337C97.7506 196.879 97.8562 197.416 98.0614 197.917C98.2666 198.417 98.5673 198.872 98.9465 199.256C99.3256 199.639 99.7757 199.943 100.271 200.15C100.766 200.358 101.297 200.465 101.833 200.465H255.279C256.362 200.465 257.4 200.03 258.166 199.256C258.931 198.482 259.362 197.432 259.362 196.337V180.858H97.7506Z" fill="#415C77" fill-opacity="0.5"/>
<path d="M251.536 90.7373H105.916V173.291H251.536V90.7373Z" fill="#415C77" fill-opacity="0.5"/>
<path d="M178.726 194.617C180.981 194.617 182.809 192.769 182.809 190.489C182.809 188.21 180.981 186.362 178.726 186.362C176.471 186.362 174.643 188.21 174.643 190.489C174.643 192.769 176.471 194.617 178.726 194.617Z" fill="black" fill-opacity="0.8"/>
<path d="M110.457 94.2242C110.885 94.2242 111.232 93.8735 111.232 93.4409C111.232 93.0082 110.885 92.6575 110.457 92.6575C110.029 92.6575 109.682 93.0082 109.682 93.4409C109.682 93.8735 110.029 94.2242 110.457 94.2242Z" fill="white"/>
<path d="M113.398 94.2242C113.826 94.2242 114.173 93.8735 114.173 93.4409C114.173 93.0082 113.826 92.6575 113.398 92.6575C112.97 92.6575 112.623 93.0082 112.623 93.4409C112.623 93.8735 112.97 94.2242 113.398 94.2242Z" fill="white"/>
<path d="M116.339 94.2242C116.767 94.2242 117.113 93.8735 117.113 93.4409C117.113 93.0082 116.767 92.6575 116.339 92.6575C115.911 92.6575 115.564 93.0082 115.564 93.4409C115.564 93.8735 115.911 94.2242 116.339 94.2242Z" fill="white"/>
<path d="M247.339 96.1026H109.682V165.434H247.339V96.1026Z" fill="white"/>
<path d="M118.832 106.648C118.703 106.648 118.58 106.7 118.488 106.792C118.397 106.885 118.346 107.01 118.346 107.14V132.009C118.346 132.14 118.397 132.265 118.488 132.357C118.58 132.449 118.703 132.501 118.832 132.501H147.24C147.369 132.501 147.493 132.449 147.584 132.357C147.675 132.265 147.726 132.14 147.726 132.009V107.14C147.726 107.01 147.675 106.885 147.584 106.792C147.493 106.7 147.369 106.648 147.24 106.648H118.832Z" fill="#415C77" fill-opacity="0.5"/>
<path d="M164.444 106.728C164.315 106.728 164.191 106.78 164.1 106.872C164.009 106.965 163.957 107.09 163.957 107.22V132.009C163.958 132.14 164.009 132.265 164.1 132.357C164.191 132.449 164.315 132.501 164.444 132.501H192.761C192.89 132.501 193.014 132.449 193.105 132.357C193.196 132.265 193.247 132.14 193.248 132.009V107.22C193.247 107.09 193.196 106.965 193.105 106.873C193.014 106.78 192.89 106.728 192.761 106.728H164.444Z" fill="#415C77" fill-opacity="0.5"/>
<path d="M209.578 106.468C209.449 106.469 209.325 106.521 209.234 106.613C209.142 106.705 209.091 106.83 209.091 106.96V132.009C209.091 132.14 209.142 132.265 209.234 132.357C209.325 132.449 209.449 132.501 209.578 132.501H238.189C238.318 132.501 238.442 132.449 238.533 132.357C238.624 132.265 238.675 132.14 238.675 132.009V106.96C238.675 106.83 238.624 106.705 238.533 106.613C238.442 106.521 238.318 106.469 238.189 106.468H209.578Z" fill="#415C77" fill-opacity="0.5"/>
<path d="M119.352 144.811C119.085 144.812 118.83 144.919 118.642 145.11C118.453 145.301 118.348 145.559 118.348 145.828C118.348 146.098 118.453 146.356 118.642 146.547C118.83 146.738 119.085 146.845 119.352 146.846H146.06C146.327 146.845 146.582 146.738 146.771 146.547C146.959 146.356 147.065 146.098 147.065 145.828C147.065 145.559 146.959 145.301 146.771 145.11C146.582 144.919 146.327 144.812 146.06 144.811H119.352Z" fill="#415C77" fill-opacity="0.5"/>
<path d="M119.352 149.65C119.085 149.65 118.83 149.757 118.642 149.948C118.453 150.139 118.348 150.397 118.348 150.667C118.348 150.936 118.453 151.195 118.642 151.385C118.83 151.576 119.085 151.684 119.352 151.684H131.377C131.644 151.684 131.899 151.576 132.087 151.385C132.276 151.195 132.381 150.936 132.381 150.667C132.381 150.397 132.276 150.139 132.087 149.948C131.899 149.757 131.644 149.65 131.377 149.65H119.352Z" fill="#6A338A"/>
<path d="M165.454 144.811C165.187 144.812 164.932 144.919 164.743 145.11C164.555 145.301 164.449 145.559 164.449 145.828C164.449 146.098 164.555 146.356 164.743 146.547C164.932 146.738 165.187 146.845 165.454 146.846H192.162C192.429 146.845 192.684 146.738 192.872 146.547C193.061 146.356 193.166 146.098 193.166 145.828C193.166 145.559 193.061 145.301 192.872 145.11C192.684 144.919 192.429 144.812 192.162 144.811H165.454Z" fill="#415C77" fill-opacity="0.5"/>
<path d="M165.454 149.65C165.187 149.65 164.932 149.757 164.743 149.948C164.555 150.139 164.449 150.397 164.449 150.667C164.449 150.936 164.555 151.195 164.743 151.385C164.932 151.576 165.187 151.684 165.454 151.684H177.479C177.746 151.684 178.001 151.576 178.189 151.385C178.378 151.195 178.484 150.936 178.484 150.667C178.484 150.397 178.378 150.139 178.189 149.948C178.001 149.757 177.746 149.65 177.479 149.65H165.454Z" fill="#6A338A"/>
<path d="M210.403 144.811C210.137 144.812 209.881 144.919 209.693 145.11C209.505 145.301 209.399 145.559 209.399 145.828C209.399 146.098 209.505 146.356 209.693 146.547C209.881 146.738 210.137 146.845 210.403 146.846H237.112C237.378 146.845 237.634 146.738 237.822 146.547C238.01 146.356 238.116 146.098 238.116 145.828C238.116 145.559 238.01 145.301 237.822 145.11C237.634 144.919 237.378 144.812 237.112 144.811H210.403Z" fill="#415C77" fill-opacity="0.5"/>
<path d="M119.352 139.814C119.085 139.815 118.83 139.922 118.642 140.113C118.453 140.304 118.348 140.562 118.348 140.831C118.348 141.101 118.453 141.359 118.642 141.55C118.83 141.741 119.085 141.848 119.352 141.849H146.06C146.327 141.848 146.582 141.741 146.771 141.55C146.959 141.359 147.065 141.101 147.065 140.831C147.065 140.562 146.959 140.304 146.771 140.113C146.582 139.922 146.327 139.815 146.06 139.814H119.352Z" fill="#415C77" fill-opacity="0.5"/>
<path d="M165.454 139.814C165.187 139.815 164.932 139.922 164.743 140.113C164.555 140.304 164.449 140.562 164.449 140.831C164.449 141.101 164.555 141.359 164.743 141.55C164.932 141.741 165.187 141.848 165.454 141.849H192.162C192.429 141.848 192.684 141.741 192.872 141.55C193.061 141.359 193.166 141.101 193.166 140.831C193.166 140.562 193.061 140.304 192.872 140.113C192.684 139.922 192.429 139.815 192.162 139.814H165.454Z" fill="#415C77" fill-opacity="0.5"/>
<path d="M211.403 139.814C211.137 139.815 210.881 139.922 210.693 140.113C210.505 140.304 210.399 140.562 210.399 140.831C210.399 141.101 210.505 141.359 210.693 141.55C210.881 141.741 211.137 141.848 211.403 141.849H238.112C238.378 141.848 238.634 141.741 238.822 141.55C239.01 141.359 239.116 141.101 239.116 140.831C239.116 140.562 239.01 140.304 238.822 140.113C238.634 139.922 238.378 139.815 238.112 139.814H211.403Z" fill="#415C77" fill-opacity="0.5"/>
<path d="M210.403 149.65C210.137 149.65 209.881 149.757 209.693 149.948C209.505 150.139 209.399 150.397 209.399 150.667C209.399 150.936 209.505 151.195 209.693 151.385C209.881 151.576 210.137 151.684 210.403 151.684H222.428C222.695 151.684 222.95 151.576 223.139 151.385C223.327 151.195 223.433 150.936 223.433 150.667C223.433 150.397 223.327 150.139 223.139 149.948C222.95 149.757 222.695 149.65 222.428 149.65H210.403Z" fill="#6A338A"/>
</svg>
