<svg width="64" height="64" viewBox="0 0 64 64" fill="none" xmlns="http://www.w3.org/2000/svg">
<path d="M29.3331 8.00047L29.3331 49.5631L15.2185 35.4485C14.9719 35.1963 14.6777 34.9956 14.3529 34.8579C14.0282 34.7202 13.6794 34.6484 13.3267 34.6464C12.974 34.6445 12.6244 34.7125 12.2982 34.8466C11.972 34.9807 11.6756 35.1782 11.4262 35.4276C11.1769 35.677 10.9794 35.9734 10.8454 36.2997C10.7114 36.6259 10.6434 36.9755 10.6454 37.3282C10.6474 37.6809 10.7194 38.0297 10.8571 38.3544C10.9948 38.6791 11.1956 38.9732 11.4478 39.2198L30.1145 57.8865C30.6145 58.3864 31.2927 58.6672 31.9998 58.6672C32.7069 58.6672 33.3851 58.3864 33.8851 57.8865L52.5518 39.2198C52.7999 38.9724 52.9967 38.6785 53.1307 38.3548C53.2648 38.0311 53.3336 37.6842 53.3331 37.3338C53.333 36.8065 53.1766 36.291 52.8835 35.8526C52.5905 35.4142 52.1741 35.0725 51.6869 34.8707C51.1997 34.6689 50.6636 34.6161 50.1464 34.7189C49.6292 34.8218 49.1541 35.0756 48.7811 35.4485L34.6665 49.5631L34.6665 8.00047C34.6665 7.29323 34.3855 6.61495 33.8854 6.11485C33.3853 5.61475 32.707 5.3338 31.9998 5.3338C31.2926 5.3338 30.6143 5.61475 30.1142 6.11485C29.6141 6.61495 29.3331 7.29323 29.3331 8.00047Z" fill="white"/>
</svg>
