<svg width="90" height="90" viewBox="0 0 90 90" fill="none" xmlns="http://www.w3.org/2000/svg">
<path d="M70.3125 5.625H19.6875C15.212 5.625 10.9197 7.4029 7.75507 10.5676C4.5904 13.7322 2.8125 18.0245 2.8125 22.5V50.625C2.8125 55.1005 4.5904 59.3928 7.75507 62.5574C10.9197 65.7221 15.212 67.5 19.6875 67.5H44.1L71.4938 86.6813C71.9508 87.0041 72.4938 87.1832 73.0532 87.1958C73.6126 87.2084 74.1631 87.0538 74.6342 86.7518C75.1052 86.4498 75.4756 86.0142 75.6977 85.5006C75.9199 84.987 75.9838 84.4188 75.8812 83.8688L73.4906 66.9937C77.3103 66.2616 80.7597 64.2325 83.2556 61.2498C85.7514 58.2671 87.1404 54.5139 87.1875 50.625V22.5C87.1875 18.0245 85.4096 13.7322 82.2449 10.5676C79.0803 7.4029 74.788 5.625 70.3125 5.625ZM81.5625 50.625C81.5625 53.6087 80.3772 56.4702 78.2674 58.5799C76.1577 60.6897 73.2962 61.875 70.3125 61.875C69.9076 61.871 69.5065 61.9545 69.1368 62.1198C68.7671 62.2851 68.4375 62.5283 68.1705 62.8327C67.9034 63.1371 67.7053 63.4956 67.5895 63.8837C67.4738 64.2718 67.4433 64.6803 67.5 65.0812L69.3844 78.3563L46.575 62.3813C46.1126 62.0584 45.5639 61.882 45 61.875H19.6875C16.7038 61.875 13.8423 60.6897 11.7325 58.5799C9.62276 56.4702 8.4375 53.6087 8.4375 50.625V22.5C8.4375 19.5163 9.62276 16.6548 11.7325 14.545C13.8423 12.4353 16.7038 11.25 19.6875 11.25H70.3125C73.2962 11.25 76.1577 12.4353 78.2674 14.545C80.3772 16.6548 81.5625 19.5163 81.5625 22.5V50.625Z" fill="#68417F"/>
<path d="M70.3125 19.6875H33.75C33.0041 19.6875 32.2887 19.9838 31.7613 20.5113C31.2338 21.0387 30.9375 21.7541 30.9375 22.5C30.9375 23.2459 31.2338 23.9613 31.7613 24.4887C32.2887 25.0162 33.0041 25.3125 33.75 25.3125H70.3125C71.0584 25.3125 71.7738 25.0162 72.3012 24.4887C72.8287 23.9613 73.125 23.2459 73.125 22.5C73.125 21.7541 72.8287 21.0387 72.3012 20.5113C71.7738 19.9838 71.0584 19.6875 70.3125 19.6875ZM70.3125 33.75H19.6875C18.9416 33.75 18.2262 34.0463 17.6988 34.5738C17.1713 35.1012 16.875 35.8166 16.875 36.5625C16.875 37.3084 17.1713 38.0238 17.6988 38.5512C18.2262 39.0787 18.9416 39.375 19.6875 39.375H70.3125C71.0584 39.375 71.7738 39.0787 72.3012 38.5512C72.8287 38.0238 73.125 37.3084 73.125 36.5625C73.125 35.8166 72.8287 35.1012 72.3012 34.5738C71.7738 34.0463 71.0584 33.75 70.3125 33.75ZM70.3125 47.8125H19.6875C18.9416 47.8125 18.2262 48.1088 17.6988 48.6363C17.1713 49.1637 16.875 49.8791 16.875 50.625C16.875 51.3709 17.1713 52.0863 17.6988 52.6137C18.2262 53.1412 18.9416 53.4375 19.6875 53.4375H70.3125C71.0584 53.4375 71.7738 53.1412 72.3012 52.6137C72.8287 52.0863 73.125 51.3709 73.125 50.625C73.125 49.8791 72.8287 49.1637 72.3012 48.6363C71.7738 48.1088 71.0584 47.8125 70.3125 47.8125Z" fill="#68417F"/>
</svg>
