<svg width="602" height="378" viewBox="0 0 602 378" fill="none" xmlns="http://www.w3.org/2000/svg">
<g clip-path="url(#clip0_1355_486)">
<path d="M574.061 378H65.2464C60.7215 378 56.382 376.204 53.1825 373.007C49.983 369.811 48.1855 365.475 48.1855 360.955C232.631 339.539 413.61 339.539 591.122 360.955C591.122 365.475 589.325 369.811 586.125 373.007C582.926 376.204 578.586 378 574.061 378Z" fill="#CCCCCC"/>
<path d="M591.122 361.958L48.1855 360.955L111.11 255.175L111.411 254.674V21.547C111.411 18.7173 111.969 15.9153 113.052 13.301C114.136 10.6867 115.725 8.31132 117.727 6.31045C119.73 4.30958 122.108 2.72245 124.724 1.63969C127.341 0.556937 130.146 -0.000236376 132.978 7.52265e-08H503.319C506.151 -0.000236376 508.956 0.556937 511.573 1.63969C514.189 2.72245 516.567 4.30958 518.57 6.31045C520.572 8.31132 522.161 10.6867 523.245 13.301C524.329 15.9153 524.886 18.7173 524.886 21.547V256.278L591.122 361.958Z" fill="#E6E6E6"/>
<path d="M132.486 15.0396C130.624 15.0416 128.838 15.7818 127.521 17.0975C126.204 18.4133 125.463 20.1973 125.461 22.0581V234.62C125.463 236.481 126.204 238.265 127.521 239.581C128.838 240.897 130.624 241.637 132.486 241.639H506.822C508.684 241.637 510.47 240.897 511.786 239.581C513.103 238.265 513.844 236.481 513.847 234.62V22.0581C513.844 20.1973 513.104 18.4134 511.787 17.0976C510.47 15.7819 508.684 15.0417 506.822 15.0396H132.486Z" fill="white"/>
<path d="M134.946 269.713C134.371 269.714 133.808 269.88 133.323 270.19C132.838 270.5 132.453 270.942 132.211 271.464L112.822 313.576C112.611 314.034 112.519 314.538 112.554 315.041C112.588 315.544 112.75 316.031 113.022 316.455C113.294 316.88 113.669 317.23 114.112 317.472C114.555 317.714 115.052 317.841 115.557 317.841H523.297C523.81 317.841 524.315 317.71 524.763 317.46C525.211 317.21 525.588 316.85 525.858 316.414C526.128 315.978 526.281 315.48 526.304 314.968C526.327 314.456 526.219 313.946 525.989 313.487L504.914 271.376C504.665 270.875 504.281 270.454 503.806 270.16C503.33 269.867 502.781 269.712 502.222 269.713L134.946 269.713Z" fill="#CCCCCC"/>
<path d="M318.149 11.5307C320.643 11.5307 322.665 9.51064 322.665 7.01877C322.665 4.5269 320.643 2.50684 318.149 2.50684C315.654 2.50684 313.632 4.5269 313.632 7.01877C313.632 9.51064 315.654 11.5307 318.149 11.5307Z" fill="white"/>
<path d="M278.071 325.862C277.409 325.863 276.766 326.081 276.241 326.484C275.715 326.886 275.337 327.45 275.164 328.088L270.301 346.136C270.18 346.581 270.164 347.049 270.254 347.502C270.344 347.955 270.537 348.381 270.818 348.748C271.099 349.114 271.461 349.411 271.875 349.615C272.289 349.82 272.745 349.926 273.207 349.926H365.701C366.181 349.926 366.654 349.811 367.081 349.591C367.507 349.372 367.875 349.053 368.153 348.663C368.432 348.272 368.612 347.82 368.681 347.346C368.749 346.871 368.702 346.387 368.545 345.934L362.292 327.886C362.087 327.295 361.703 326.783 361.193 326.42C360.683 326.058 360.073 325.863 359.447 325.862H278.071Z" fill="#CCCCCC"/>
<path d="M524.886 251.164V255.175H111.11L111.421 254.674V251.164H524.886Z" fill="#CCCCCC"/>
<path d="M473.813 260.352C473.652 260.352 473.496 260.405 473.368 260.503C473.24 260.601 473.148 260.738 473.105 260.894L471.921 265.288C471.892 265.397 471.888 265.511 471.91 265.621C471.932 265.731 471.979 265.835 472.047 265.924C472.116 266.014 472.204 266.086 472.304 266.136C472.405 266.186 472.516 266.211 472.629 266.211H495.153C495.269 266.211 495.385 266.183 495.488 266.13C495.592 266.076 495.682 265.999 495.75 265.904C495.817 265.809 495.862 265.699 495.878 265.583C495.895 265.468 495.883 265.35 495.845 265.239L494.322 260.844C494.273 260.701 494.179 260.576 494.055 260.487C493.931 260.399 493.782 260.352 493.63 260.352H473.813Z" fill="#CCCCCC"/>
<path d="M440.926 260.352C440.765 260.352 440.608 260.405 440.48 260.503C440.353 260.601 440.26 260.738 440.218 260.894L439.034 265.288C439.005 265.397 439.001 265.511 439.023 265.621C439.045 265.731 439.091 265.835 439.16 265.924C439.228 266.014 439.316 266.086 439.417 266.136C439.518 266.186 439.629 266.211 439.742 266.211H462.265C462.382 266.211 462.497 266.183 462.601 266.13C462.705 266.076 462.795 265.999 462.863 265.904C462.93 265.809 462.974 265.699 462.991 265.583C463.008 265.468 462.996 265.35 462.958 265.239L461.435 260.844C461.385 260.701 461.292 260.576 461.168 260.487C461.044 260.399 460.895 260.352 460.743 260.352H440.926Z" fill="#CCCCCC"/>
<path d="M345.645 288.277H347.41L343.88 52.5376H342.115L342.185 57.2406H302.62L302.69 52.5376H300.925L297.394 288.277H299.16L299.389 272.992H345.416L345.645 288.277ZM343.101 118.38H301.704L302.136 89.574H342.669L343.101 118.38ZM343.127 120.144L343.559 148.95H301.246L301.678 120.144H343.127ZM343.585 150.713L344.016 179.519H300.789L301.22 150.713H343.585ZM344.043 181.283L344.474 210.089H300.331L300.762 181.283H344.043ZM344.501 211.853L344.932 240.659H299.873L300.304 211.853H344.501ZM342.211 59.0043L342.643 87.8103H302.162L302.593 59.0043H342.211ZM299.415 271.228L299.847 242.422H344.958L345.39 271.228H299.415Z" fill="#3F3D56"/>
<path d="M313.658 133.734C329.555 133.734 342.442 120.859 342.442 104.976C342.442 89.0932 329.555 76.2178 313.658 76.2178C297.76 76.2178 284.873 89.0932 284.873 104.976C284.873 120.859 297.76 133.734 313.658 133.734Z" fill="#2F2E41"/>
<path d="M330.589 124.85L321.984 126.406L324.775 141.809L333.38 140.253L330.589 124.85Z" fill="#2F2E41"/>
<path d="M313.379 127.963L304.774 129.519L307.565 144.922L316.17 143.366L313.379 127.963Z" fill="#2F2E41"/>
<path d="M312.133 148.163C315.205 145.565 316.904 142.525 315.928 141.375C314.953 140.224 311.672 141.398 308.601 143.996C305.53 146.595 303.831 149.634 304.806 150.785C305.782 151.936 309.062 150.762 312.133 148.163Z" fill="#2F2E41"/>
<path d="M328.985 145.115C332.056 142.517 333.755 139.477 332.779 138.327C331.804 137.176 328.524 138.35 325.452 140.949C322.381 143.547 320.682 146.587 321.657 147.737C322.633 148.888 325.913 147.714 328.985 145.115Z" fill="#2F2E41"/>
<path d="M311.642 107.77C317.076 107.77 321.48 103.369 321.48 97.941C321.48 92.5128 317.076 88.1123 311.642 88.1123C306.209 88.1123 301.805 92.5128 301.805 97.941C301.805 103.369 306.209 107.77 311.642 107.77Z" fill="white"/>
<path d="M307.599 97.6946C309.41 97.6946 310.878 96.2278 310.878 94.4183C310.878 92.6089 309.41 91.1421 307.599 91.1421C305.788 91.1421 304.32 92.6089 304.32 94.4183C304.32 96.2278 305.788 97.6946 307.599 97.6946Z" fill="#3F3D56"/>
<path d="M336.365 73.6899C336.798 63.0432 327.613 54.0254 315.851 53.548C304.088 53.0707 294.202 61.3146 293.769 71.9613C293.336 82.608 301.513 85.0269 313.275 85.5043C325.038 85.9817 335.932 84.3366 336.365 73.6899Z" fill="#68417F"/>
<path d="M301.107 102.949C301.665 100.519 295.836 97.1108 288.088 95.3366C280.341 93.5623 273.608 94.0939 273.05 96.5239C272.493 98.9539 278.322 102.362 286.069 104.136C293.817 105.911 300.55 105.379 301.107 102.949Z" fill="#2F2E41"/>
<path d="M357.611 112.337C358.168 109.907 352.339 106.499 344.592 104.724C336.844 102.95 330.111 103.482 329.554 105.912C328.996 108.342 334.825 111.75 342.573 113.524C350.32 115.298 357.053 114.767 357.611 112.337Z" fill="#2F2E41"/>
<path d="M321.563 116.309C321.718 117.156 321.705 118.025 321.524 118.867C321.342 119.708 320.997 120.506 320.507 121.214C320.017 121.923 319.392 122.527 318.668 122.994C317.943 123.461 317.134 123.78 316.287 123.935C315.439 124.089 314.569 124.075 313.726 123.893C312.884 123.711 312.086 123.365 311.378 122.875C310.669 122.384 310.064 121.76 309.598 121.036C309.131 120.312 308.812 119.503 308.658 118.656L308.656 118.643C308.011 115.083 310.767 113.822 314.331 113.178C317.895 112.533 320.918 112.748 321.563 116.309Z" fill="white"/>
<path d="M216.165 202.649C219.074 195.045 219.496 188.141 217.106 187.229C214.717 186.316 210.421 191.741 207.512 199.345C204.603 206.949 204.182 213.853 206.571 214.766C208.96 215.678 213.256 210.254 216.165 202.649Z" fill="#2F2E41"/>
<path d="M213.691 227.981C216.302 211.91 205.377 196.767 189.291 194.159C173.205 191.551 158.049 202.465 155.438 218.537C152.828 234.608 163.752 249.75 179.838 252.358C195.924 254.966 211.081 244.052 213.691 227.981Z" fill="#2F2E41"/>
<path d="M180.083 246.396H171.118V262.442H180.083V246.396Z" fill="#2F2E41"/>
<path d="M198.011 246.396H189.047V262.442H198.011V246.396Z" fill="#2F2E41"/>
<path d="M178.589 265.427C182.714 265.427 186.059 264.174 186.059 262.628C186.059 261.083 182.714 259.83 178.589 259.83C174.463 259.83 171.118 261.083 171.118 262.628C171.118 264.174 174.463 265.427 178.589 265.427Z" fill="#2F2E41"/>
<path d="M196.517 265.054C200.643 265.054 203.987 263.801 203.987 262.255C203.987 260.709 200.643 259.456 196.517 259.456C192.391 259.456 189.047 260.709 189.047 262.255C189.047 263.801 192.391 265.054 196.517 265.054Z" fill="#2F2E41"/>
<path d="M155.941 195.843C153.559 185.182 161.175 174.41 172.953 171.783C184.73 169.156 196.21 175.668 198.592 186.328C200.975 196.989 193.169 200.92 181.392 203.548C169.614 206.175 158.324 206.503 155.941 195.843Z" fill="#68417F"/>
<path d="M164.66 215.897C165.756 213.587 160.676 208.888 153.314 205.399C145.952 201.91 139.095 200.954 137.999 203.263C136.903 205.572 141.982 210.272 149.345 213.761C156.707 217.249 163.564 218.206 164.66 215.897Z" fill="#2F2E41"/>
<path d="M56.7994 282.589C73.096 282.589 86.307 269.391 86.307 253.109C86.307 236.828 73.096 223.629 56.7994 223.629C40.5029 223.629 27.2919 236.828 27.2919 253.109C27.2919 269.391 40.5029 282.589 56.7994 282.589Z" fill="#2F2E41"/>
<path d="M52.3173 276.246H43.353V292.292H52.3173V276.246Z" fill="#2F2E41"/>
<path d="M70.2459 276.246H61.2816V292.292H70.2459V276.246Z" fill="#2F2E41"/>
<path d="M50.8232 295.277C54.9489 295.277 58.2935 294.024 58.2935 292.478C58.2935 290.933 54.9489 289.68 50.8232 289.68C46.6975 289.68 43.3529 290.933 43.3529 292.478C43.3529 294.024 46.6975 295.277 50.8232 295.277Z" fill="#2F2E41"/>
<path d="M68.7519 294.904C72.8776 294.904 76.2222 293.651 76.2222 292.105C76.2222 290.559 72.8776 289.306 68.7519 289.306C64.6262 289.306 61.2816 290.559 61.2816 292.105C61.2816 293.651 64.6262 294.904 68.7519 294.904Z" fill="#2F2E41"/>
<path d="M57.5465 255.721C63.1162 255.721 67.6313 251.21 67.6313 245.646C67.6313 240.081 63.1162 235.57 57.5465 235.57C51.9768 235.57 47.4616 240.081 47.4616 245.646C47.4616 251.21 51.9768 255.721 57.5465 255.721Z" fill="white"/>
<path d="M57.5465 249.004C59.4031 249.004 60.9081 247.5 60.9081 245.646C60.9081 243.791 59.4031 242.287 57.5465 242.287C55.6899 242.287 54.1848 243.791 54.1848 245.646C54.1848 247.5 55.6899 249.004 57.5465 249.004Z" fill="#3F3D56"/>
<path d="M28.1761 225.693C25.7935 215.032 33.4097 204.26 45.1874 201.633C56.9651 199.006 68.4443 205.518 70.8269 216.178C73.2095 226.839 65.404 230.771 53.6263 233.398C41.8486 236.025 30.5587 236.354 28.1761 225.693Z" fill="#E6E6E6"/>
<path d="M78.3148 147.79C81.224 140.186 81.6454 133.282 79.256 132.369C76.8666 131.457 72.5712 136.881 69.662 144.486C66.7529 152.09 66.3315 158.994 68.7209 159.907C71.1103 160.819 75.4057 155.394 78.3148 147.79Z" fill="#2F2E41"/>
<path d="M75.8411 173.122C78.4515 157.051 67.5273 141.908 51.4412 139.3C35.355 136.692 20.1984 147.606 17.588 163.678C14.9776 179.749 25.9018 194.892 41.988 197.5C58.0741 200.108 73.2307 189.193 75.8411 173.122Z" fill="#2F2E41"/>
<path d="M42.2324 191.536H33.2681V207.582H42.2324V191.536Z" fill="#2F2E41"/>
<path d="M60.161 191.536H51.1967V207.582H60.161V191.536Z" fill="#2F2E41"/>
<path d="M40.7384 210.568C44.8641 210.568 48.2087 209.315 48.2087 207.769C48.2087 206.223 44.8641 204.97 40.7384 204.97C36.6127 204.97 33.2681 206.223 33.2681 207.769C33.2681 209.315 36.6127 210.568 40.7384 210.568Z" fill="#2F2E41"/>
<path d="M58.667 210.195C62.7927 210.195 66.1373 208.942 66.1373 207.396C66.1373 205.85 62.7927 204.597 58.667 204.597C54.5413 204.597 51.1967 205.85 51.1967 207.396C51.1967 208.942 54.5413 210.195 58.667 210.195Z" fill="#2F2E41"/>
<path d="M47.4616 171.012C53.0313 171.012 57.5465 166.501 57.5465 160.936C57.5465 155.372 53.0313 150.861 47.4616 150.861C41.8919 150.861 37.3767 155.372 37.3767 160.936C37.3767 166.501 41.8919 171.012 47.4616 171.012Z" fill="white"/>
<path d="M47.4616 164.295C49.3182 164.295 50.8232 162.792 50.8232 160.937C50.8232 159.082 49.3182 157.578 47.4616 157.578C45.605 157.578 44.1 159.082 44.1 160.937C44.1 162.792 45.605 164.295 47.4616 164.295Z" fill="#3F3D56"/>
<path d="M18.0913 140.984C15.7087 130.324 23.3249 119.552 35.1026 116.924C46.8803 114.297 58.3594 120.809 60.742 131.469C63.1246 142.13 55.3191 146.062 43.5415 148.689C31.7638 151.316 20.4739 151.645 18.0913 140.984Z" fill="#68417F"/>
<path d="M26.8097 161.037C27.9058 158.728 22.8262 154.028 15.464 150.54C8.1018 147.051 1.24492 146.095 0.148742 148.404C-0.947433 150.713 4.1322 155.413 11.4944 158.902C18.8566 162.39 25.7135 163.346 26.8097 161.037Z" fill="#2F2E41"/>
<path d="M32.2206 179.035C32.2206 181.92 39.6567 187.618 47.9081 187.618C56.1595 187.618 63.8962 179.495 63.8962 176.609C63.8962 173.724 56.1595 177.169 47.9081 177.169C39.6567 177.169 32.2206 176.15 32.2206 179.035Z" fill="white"/>
<path d="M75.7253 55.835C75.1804 55.8356 74.6579 56.0521 74.2725 56.4371C73.8872 56.8221 73.6705 57.3441 73.6699 57.8885V142.769C73.6705 143.313 73.8872 143.835 74.2725 144.22C74.6579 144.605 75.1804 144.821 75.7253 144.822H272.363C272.908 144.821 273.431 144.605 273.816 144.22C274.201 143.835 274.418 143.313 274.419 142.769V57.8885C274.418 57.3441 274.201 56.8221 273.816 56.4371C273.431 56.0521 272.908 55.8356 272.363 55.835H75.7253Z" fill="#68417F"/>
<path d="M128.821 120.263C139.84 120.263 148.773 111.338 148.773 100.329C148.773 89.3197 139.84 80.395 128.821 80.395C117.801 80.395 108.868 89.3197 108.868 100.329C108.868 111.338 117.801 120.263 128.821 120.263Z" fill="white"/>
<path d="M173.852 97.6766C173.24 97.6866 172.657 97.9366 172.227 98.3726C171.798 98.8086 171.558 99.3957 171.558 100.007C171.558 100.619 171.798 101.206 172.227 101.642C172.657 102.078 173.24 102.328 173.852 102.338H236.849C237.155 102.343 237.46 102.288 237.745 102.176C238.03 102.063 238.29 101.896 238.511 101.683C238.731 101.47 238.907 101.216 239.029 100.935C239.151 100.654 239.217 100.352 239.222 100.046C239.227 99.7393 239.171 99.4351 239.059 99.1503C238.946 98.8655 238.778 98.6057 238.565 98.3857C238.352 98.1657 238.097 97.9898 237.816 97.8681C237.535 97.7465 237.232 97.6814 236.925 97.6766C236.9 97.6762 236.874 97.6762 236.849 97.6766H173.852Z" fill="white"/>
<path d="M173.852 84.1727C173.24 84.1827 172.657 84.4327 172.227 84.8687C171.798 85.3047 171.558 85.8918 171.558 86.5034C171.558 87.1149 171.798 87.702 172.227 88.138C172.657 88.574 173.24 88.824 173.852 88.834H205.311C205.618 88.8393 205.922 88.7842 206.208 88.6718C206.493 88.5594 206.753 88.392 206.973 88.1791C207.194 87.9662 207.37 87.712 207.492 87.4311C207.614 87.1501 207.679 86.8479 207.684 86.5417C207.689 86.2354 207.634 85.9312 207.521 85.6464C207.409 85.3616 207.241 85.1017 207.028 84.8817C206.814 84.6617 206.56 84.4859 206.278 84.3642C205.997 84.2425 205.694 84.1775 205.388 84.1727C205.362 84.1723 205.337 84.1723 205.311 84.1727H173.852Z" fill="white"/>
<path d="M173.852 111.823C173.24 111.833 172.657 112.083 172.227 112.519C171.798 112.955 171.558 113.542 171.558 114.154C171.558 114.765 171.798 115.352 172.227 115.788C172.657 116.224 173.24 116.474 173.852 116.484H236.849C237.155 116.49 237.46 116.435 237.745 116.322C238.03 116.21 238.29 116.042 238.511 115.83C238.731 115.617 238.907 115.362 239.029 115.081C239.151 114.801 239.217 114.498 239.222 114.192C239.227 113.886 239.171 113.582 239.059 113.297C238.946 113.012 238.778 112.752 238.565 112.532C238.352 112.312 238.097 112.136 237.816 112.015C237.535 111.893 237.232 111.828 236.925 111.823C236.9 111.823 236.874 111.823 236.849 111.823H173.852Z" fill="white"/>
<path d="M479.804 268.826C482.193 267.914 481.772 261.01 478.863 253.405C475.954 245.801 471.658 240.376 469.269 241.289C466.879 242.201 467.301 249.105 470.21 256.71C473.119 264.314 477.415 269.739 479.804 268.826Z" fill="#2F2E41"/>
<path d="M500.37 312.58C516.457 309.972 527.381 294.83 524.77 278.758C522.16 262.687 507.003 251.773 490.917 254.381C474.831 256.989 463.907 272.131 466.517 288.203C469.128 304.274 484.284 315.188 500.37 312.58Z" fill="#2F2E41"/>
<path d="M509.09 306.617H500.126L501.88 325.833L509.106 323.872L509.09 306.617Z" fill="#2F2E41"/>
<path d="M489.548 306.667H480.583L482.337 325.883L489.236 323.872L489.548 306.667Z" fill="#2F2E41"/>
<path d="M482.082 326.786C486.197 326.485 489.441 324.992 489.328 323.45C489.216 321.909 485.789 320.903 481.674 321.203C477.559 321.504 474.315 322.997 474.428 324.539C474.54 326.08 477.968 327.087 482.082 326.786Z" fill="#2F2E41"/>
<path d="M494.897 286.092C500.467 286.092 504.982 281.582 504.982 276.017C504.982 270.452 500.467 265.941 494.897 265.941C489.327 265.941 484.812 270.452 484.812 276.017C484.812 281.582 489.327 286.092 494.897 286.092Z" fill="white"/>
<path d="M494.897 279.375C496.753 279.375 498.258 277.872 498.258 276.017C498.258 274.162 496.753 272.658 494.897 272.658C493.04 272.658 491.535 274.162 491.535 276.017C491.535 277.872 493.04 279.375 494.897 279.375Z" fill="#3F3D56"/>
<path d="M530.549 265.705C535.39 259.157 537.647 252.618 535.589 251.1C533.532 249.581 527.939 253.659 523.098 260.207C518.257 266.755 516.001 273.294 518.058 274.813C520.116 276.331 525.708 272.254 530.549 265.705Z" fill="#2F2E41"/>
<path d="M481.247 298.681C481.247 296.303 487.376 291.607 494.176 291.607C500.977 291.607 507.353 298.302 507.353 300.68C507.353 303.058 500.977 300.219 494.176 300.219C487.376 300.219 481.247 301.059 481.247 298.681Z" fill="white"/>
<path d="M578.387 259.118L416.866 236.747C415.607 236.571 414.469 235.904 413.702 234.891C412.935 233.877 412.601 232.602 412.774 231.343L430.932 100.483C431.108 99.2249 431.777 98.088 432.791 97.3215C433.805 96.5551 435.082 96.2218 436.341 96.3948L597.862 118.766C599.121 118.941 600.26 119.609 601.027 120.622C601.794 121.635 602.127 122.911 601.954 124.17L583.796 255.03C583.62 256.288 582.952 257.425 581.938 258.191C580.924 258.958 579.647 259.291 578.387 259.118Z" fill="#68417F"/>
<path d="M520.523 218.278L438.063 206.857C437.959 206.844 437.857 206.822 437.758 206.79L486.123 144.7C486.419 144.313 486.813 144.011 487.264 143.826C487.716 143.64 488.208 143.578 488.692 143.645C489.175 143.712 489.632 143.906 490.016 144.207C490.4 144.508 490.697 144.905 490.876 145.359L510.766 194.276L511.719 196.617L520.523 218.278Z" fill="white"/>
<path opacity="0.2" d="M520.523 218.278L492.369 214.379L508.973 196.236L510.168 194.93L510.766 194.276L511.719 196.617L520.523 218.278Z" fill="black"/>
<path d="M566.437 224.637L495.115 214.759L511.719 196.617L512.914 195.31L534.55 171.666C534.924 171.311 535.369 171.039 535.855 170.866C536.341 170.694 536.858 170.625 537.373 170.665C537.887 170.706 538.387 170.853 538.84 171.099C539.294 171.345 539.691 171.684 540.005 172.092C540.084 172.207 540.155 172.327 540.219 172.451L566.437 224.637Z" fill="white"/>
<path d="M521.526 165.779C528.337 165.779 533.859 160.262 533.859 153.458C533.859 146.653 528.337 141.136 521.526 141.136C514.715 141.136 509.194 146.653 509.194 153.458C509.194 160.262 514.715 165.779 521.526 165.779Z" fill="white"/>
<path d="M454.027 108.522L439.097 106.454L437.027 121.371L451.957 123.439L454.027 108.522Z" fill="#3F3D56"/>
<path d="M524.267 256.065C526.65 245.404 519.034 234.632 507.256 232.005C495.478 229.377 483.999 235.889 481.616 246.55C479.234 257.21 487.039 261.142 498.817 263.769C510.595 266.397 521.885 266.725 524.267 256.065Z" fill="#F2F2F2"/>
<path d="M501.741 326.739C505.856 326.438 509.1 324.945 508.987 323.403C508.874 321.861 505.447 320.855 501.332 321.156C497.218 321.457 493.973 322.95 494.086 324.492C494.199 326.033 497.626 327.039 501.741 326.739Z" fill="#2F2E41"/>
</g>
<defs>
<clipPath id="clip0_1355_486">
<rect width="602" height="378" fill="white"/>
</clipPath>
</defs>
</svg>
