<svg width="85" height="92" viewBox="0 0 85 92" fill="none" xmlns="http://www.w3.org/2000/svg">
<path d="M50.9085 91.4451L4.49105 72.0819C3.47359 71.6611 2.56513 71.0128 1.83481 70.1864C1.10448 69.3599 0.571533 68.3771 0.276512 67.3127C-0.0267963 66.236 -0.0814162 65.1041 0.116791 64.003C0.314997 62.9019 0.760808 61.8607 1.4203 60.9587C13.1433 44.7524 20.902 26.0031 24.0688 6.22761C24.2403 5.12207 24.6606 4.07036 25.2979 3.15251C25.9352 2.23466 26.7727 1.47485 27.7465 0.930896C28.7059 0.389757 29.7756 0.0754812 30.8743 0.0119999C31.9729 -0.0514814 33.0714 0.137513 34.0863 0.564569L80.5038 19.9278C82.1045 20.6009 83.4153 21.8227 84.2026 23.3755C84.9899 24.9283 85.2027 26.7112 84.8031 28.4068C79.6143 49.602 71.225 69.8749 59.9265 88.5213C59.0117 90.002 57.6032 91.1086 55.9517 91.6441C54.3002 92.1795 52.513 92.109 50.9085 91.4451Z" fill="#C6CED6"/>
<path d="M32.6878 4.27023C32.2032 4.066 31.6787 3.97551 31.154 4.00567C30.6294 4.03582 30.1186 4.18581 29.6603 4.44423C29.1893 4.70836 28.7844 5.07695 28.4764 5.52198C28.1685 5.96701 27.9656 6.47675 27.8833 7.01242C24.6404 27.28 16.695 46.4959 4.69003 63.1054C4.37034 63.5418 4.15395 64.0458 4.05735 64.579C3.96074 65.1122 3.98645 65.6604 4.13254 66.1821L4.13271 66.1825C4.27367 66.6912 4.52827 67.1608 4.87712 67.5557C5.22597 67.9506 5.65988 68.2603 6.14582 68.4612L52.3005 87.7305C53.0657 88.0502 53.919 88.0867 54.7084 87.8334C55.4978 87.5801 56.1722 87.0535 56.6113 86.3473C67.6466 68.1202 75.8406 48.3033 80.9086 27.585C81.0968 26.774 80.9924 25.9222 80.614 25.1814C80.2356 24.4405 79.6078 23.8587 78.8424 23.5395L32.6878 4.27023Z" fill="white"/>
<path d="M57.2881 46.7125L33.2947 36.6168C32.383 36.2321 31.6593 35.4968 31.2823 34.5722C30.9054 33.6477 30.9059 32.6095 31.2839 31.6854L31.8424 30.3239C32.2224 29.4006 32.9485 28.6677 33.8614 28.2859C34.7743 27.9042 35.7994 27.9047 36.7119 28.2875L60.7053 38.3831C61.617 38.7679 62.3407 39.5032 62.7177 40.4278C63.0947 41.3523 63.0941 42.3905 62.7161 43.3146L62.1576 44.6761C61.7776 45.5994 61.0515 46.3323 60.1386 46.7141C59.2257 47.0958 58.2006 47.0953 57.2881 46.7125Z" fill="#68417F"/>
<path d="M50.1096 64.6974L25.3664 54.0704C24.4262 53.6653 23.6799 52.8913 23.2912 51.9181C22.9024 50.945 22.903 49.8521 23.2927 48.8793L23.8688 47.4462C24.2606 46.4744 25.0094 45.7029 25.9508 45.301C26.8922 44.8991 27.9494 44.8997 28.8905 45.3026L53.6336 55.9296C54.5738 56.3347 55.3201 57.1087 55.7088 58.0819C56.0976 59.055 56.097 60.1479 55.7073 61.1206L55.1312 62.5538C54.7394 63.5257 53.9907 64.2972 53.0492 64.699C52.1078 65.1009 51.0506 65.1003 50.1096 64.6974Z" fill="#68417F"/>
<path d="M67.2901 23C66.9267 22.9997 66.5668 22.9264 66.2301 22.7842L53.9983 17.6445L41.7665 12.5049C41.072 12.2121 40.5175 11.6449 40.2248 10.9278C39.9321 10.2107 39.925 9.40219 40.2051 8.67965L42.0891 3.8367C42.3702 3.1143 42.916 2.53753 43.6062 2.23326C44.2965 1.92899 45.0748 1.92214 45.7699 2.21419L70.2335 12.4934C70.928 12.7862 71.4825 13.3534 71.7752 14.0705C72.0679 14.7876 72.075 15.5962 71.7949 16.3187L69.9109 21.1617C69.6992 21.704 69.3369 22.1686 68.8701 22.496C68.4033 22.8234 67.8533 22.9989 67.2901 23Z" fill="#92A6BA"/>
</svg>
