<?xml version="1.0" encoding="UTF-8" standalone="no"?>
<!-- Generator: Adobe Illustrator 22.0.0, SVG Export Plug-In . SVG Version: 6.00 Build 0)  -->

<svg
   version="1.1"
   x="0px"
   y="0px"
   viewBox="0 0 120 120"
   xml:space="preserve"
   id="svg43"
   sodipodi:docname="gsi-logo.svg"
   width="120"
   height="120"
   inkscape:version="1.1.2 (0a00cf5339, 2022-02-04)"
   inkscape:export-filename="/home/lucsturci/Documents/projects/uspy-frontend/src/images/gsi-logo.png"
   inkscape:export-xdpi="96"
   inkscape:export-ydpi="96"
   xmlns:inkscape="http://www.inkscape.org/namespaces/inkscape"
   xmlns:sodipodi="http://sodipodi.sourceforge.net/DTD/sodipodi-0.dtd"
   xmlns="http://www.w3.org/2000/svg"
   xmlns:svg="http://www.w3.org/2000/svg"
   xmlns:rdf="http://www.w3.org/1999/02/22-rdf-syntax-ns#"
   xmlns:cc="http://creativecommons.org/ns#"
   xmlns:dc="http://purl.org/dc/elements/1.1/"><metadata
   id="metadata49"><rdf:RDF><cc:Work
       rdf:about=""><dc:format>image/svg+xml</dc:format><dc:type
         rdf:resource="http://purl.org/dc/dcmitype/StillImage" /></cc:Work></rdf:RDF></metadata><defs
   id="defs47">
		
		
		
		
		
	</defs><sodipodi:namedview
   pagecolor="#ffffff"
   bordercolor="#666666"
   borderopacity="1"
   objecttolerance="10"
   gridtolerance="10"
   guidetolerance="10"
   inkscape:pageopacity="0"
   inkscape:pageshadow="2"
   inkscape:window-width="2078"
   inkscape:window-height="834"
   id="namedview45"
   showgrid="false"
   fit-margin-top="0"
   fit-margin-left="0"
   fit-margin-right="0"
   fit-margin-bottom="0"
   inkscape:zoom="2.2825326"
   inkscape:cx="35.267843"
   inkscape:cy="47.315863"
   inkscape:window-x="2302"
   inkscape:window-y="121"
   inkscape:window-maximized="0"
   inkscape:current-layer="svg43"
   inkscape:pagecheckerboard="0"
   width="50px" />
<style
   type="text/css"
   id="style2">
	.st0{fill:#68427F;}
	.st1{fill:#415C77;}
	.st2{fill:none;stroke:#415C77;stroke-miterlimit:10;}
</style>
<g
   id="Layer_1"
   transform="translate(-56.943417,-125.86765)">
	
</g>

<g
   id="g1235"
   transform="matrix(2.5599503,0,0,2.5599503,1.6205674,4.6636629)"><polygon
     class="st0"
     points="67.3,154.9 70.5,155.9 70.5,142.6 67.3,142.6 "
     id="polygon18"
     style="fill:#68427f"
     transform="translate(-56.943417,-125.86765)" /><g
     id="g24"
     transform="translate(-56.943417,-125.86765)">
			<path
   class="st0"
   d="m 92.3,154.9 v -12 l -3.2,0.1 v 12.2 c 0.1,0.1 2.2,0.5 3.2,-0.3 z"
   id="path20"
   inkscape:connector-curvature="0"
   style="fill:#68427f" />
			<path
   class="st0"
   d="m 89.1,156.5 c 0,3 -0.8,5.7 -2.5,7.4 -1.7,1.7 -4,2.5 -6.9,2.5 -2.9,0 -5.2,-0.8 -6.8,-2.5 -1.6,-1.7 -2.4,-4.4 -2.4,-7.4 0,0 0,0 0,0 -1.9,0.1 -3.2,-0.9 -3.2,-0.9 v 0.7 c 0,2.6 0.5,5.2 1.5,7 1,1.9 2.4,3.3 4.3,4.3 1.9,1 4.1,1.5 6.6,1.5 2.6,0 4.8,-0.5 6.7,-1.5 1.9,-1 3.4,-2.5 4.4,-4.4 1,-1.9 1.5,-4.6 1.5,-7.1 v -0.6 c -0.1,0.1 -1.3,1.1 -3.2,1 z"
   id="path22"
   inkscape:connector-curvature="0"
   style="fill:#68427f" />
		</g><g
     id="Layer_3"
     transform="translate(-56.943417,-125.86765)">
	<path
   class="st1"
   d="m 76.1,149.7 c 0,0 3.6,-4 7.4,0 h -1 c 0,0 -2.6,-2.3 -5.4,0 z"
   id="path29"
   inkscape:connector-curvature="0"
   style="fill:#415c77" />
	<circle
   class="st2"
   cx="70.800003"
   cy="149.60001"
   r="5.9000001"
   id="circle31"
   style="fill:none;stroke:#415c77;stroke-miterlimit:10" />
	<circle
   class="st2"
   cx="88.900002"
   cy="149.60001"
   r="5.9000001"
   id="circle33"
   style="fill:none;stroke:#415c77;stroke-miterlimit:10" />
</g><g
     id="Layer_2"
     transform="translate(-56.943417,-125.86765)">
	<g
   id="g40">
		<path
   class="st1"
   d="m 93.1,138.9 c 0,0 -0.2,1.3 0.4,2.7 -3.8,1.5 -25.8,-0.1 -27.6,-1.1 0.4,-1 0.6,-2.5 0.6,-2.5 -5.8,0 -16.8,4.7 -2.6,8.6 7.6,1.5 20.8,2 31.7,0.5 11.7,-1.7 7.1,-8 -2.5,-8.2 z"
   id="path36"
   inkscape:connector-curvature="0"
   style="fill:#415c77" />
		<path
   class="st1"
   d="m 93.1,138.9 c 0.1,-5.1 0.4,-3 -0.8,-9.8 -1.3,-6.8 -7.1,-0.9 -10.6,0 -3.4,0.9 -6.3,-1.1 -6.3,-1.1 0,0 -6.5,-5.2 -7.9,3.4 -0.6,4.8 -0.8,5.6 -1,6.6 10.9,1.5 26.1,1.5 26.6,0.9 z"
   id="path38"
   inkscape:connector-curvature="0"
   style="fill:#415c77" />
	</g>
</g></g>
</svg>
