<?xml version="1.0" encoding="utf-8"?>
<svg viewBox="311.064 227.611 128.014 108.72" xmlns="http://www.w3.org/2000/svg">
  <defs>
    <linearGradient gradientUnits="userSpaceOnUse" x1="220.643" y1="228.435" x2="220.643" y2="337.155" id="gradient-1" gradientTransform="matrix(0.999956, -0.004398, 0.00881, 0.723251, -159.516861, -150.069122)" spreadMethod="pad">
      <stop offset="0" style="stop-color: rgb(255, 0, 8);"/>
      <stop offset="1" style="stop-color: rgba(252, 196, 27, 0.46);"/>
    </linearGradient>
  </defs>
  <path d="M 64 9.64 C 1.69 9.64 0.21 79.5 0.21 93.33 C 0.21 107.16 28.77 118.36 64 118.36 C 99.24 118.36 127.79 107.15 127.79 93.33 C 127.79 79.5 126.32 9.64 64 9.64 Z" style="fill: rgb(252, 194, 27);" transform="matrix(1, 0, 0, 1, 310.853851, 217.970688)"/>
  <path d="M 63.867 9.807 C 1.557 9.807 0.537 79.194 0.644 93.024 C 0.752 106.854 29.399 118.054 64.629 118.054 C 99.869 118.054 128.332 106.844 128.224 93.024 C 128.117 79.194 126.187 9.807 63.867 9.807 Z" style="fill-rule: evenodd; paint-order: fill; mix-blend-mode: multiply; fill: url(#gradient-1);" transform="matrix(1, 0, 0, 1, 310.853851, 217.970688)"/>
  <path d="M 42.87 79.15 C 42.2 79.15 41.52 78.9 40.99 78.4 C 39.88 77.36 39.83 75.62 40.87 74.51 C 46.67 68.33 55.11 64.78 64 64.78 L 64 64.78 C 72.9 64.78 81.33 68.33 87.13 74.51 C 88.17 75.62 88.11 77.36 87.01 78.4 C 85.9 79.44 84.16 79.38 83.12 78.28 C 78.35 73.2 71.38 70.29 64 70.29 C 56.62 70.29 49.65 73.2 44.88 78.28 C 44.33 78.86 43.6 79.15 42.87 79.15 Z" style="fill: rgb(47, 47, 47);" transform="matrix(1, 0, 0, 1, 310.853851, 217.970688)"/>
  <path d="M 87.189 94.737 C 90.479 100.477 97.819 102.507 103.639 99.267 C 103.969 99.077 104.249 98.837 104.549 98.627 C 108.179 100.827 112.839 101.117 116.809 98.917 C 122.609 95.677 124.649 88.377 121.369 82.647 C 121.299 82.517 121.189 82.417 121.109 82.297 C 123.019 78.807 123.149 74.477 121.019 70.767 C 117.739 65.027 110.359 63.007 104.569 66.237 C 102.189 67.567 100.489 69.587 99.479 71.877 C 91.479 69.787 78.409 61.377 71.989 55.037 C 71.989 55.037 81.519 70.057 91.629 78.557 C 85.939 81.837 83.939 89.047 87.189 94.737 Z" style="fill: rgb(255, 255, 255); isolation: isolate; visibility: hidden;" transform="matrix(1, 0, 0, 1, 310.853851, 217.970688)"/>
  <path d="M 41.083 94.268 C 37.793 100.008 30.453 102.038 24.633 98.798 C 24.303 98.608 24.023 98.368 23.723 98.158 C 20.093 100.358 15.433 100.648 11.463 98.448 C 5.663 95.208 3.623 87.908 6.903 82.178 C 6.973 82.048 7.083 81.948 7.163 81.828 C 5.253 78.338 5.123 74.008 7.253 70.298 C 10.533 64.558 17.913 62.538 23.703 65.768 C 26.083 67.098 27.783 69.118 28.793 71.408 C 36.793 69.318 49.863 60.908 56.283 54.568 C 56.283 54.568 46.753 69.588 36.643 78.088 C 42.333 81.368 44.333 88.578 41.083 94.268 Z" style="fill: rgb(255, 255, 255); isolation: isolate; visibility: hidden;" transform="matrix(1, 0, 0, 1, 310.853851, 217.970688)"/>
  <g transform="matrix(1, 0, 0, 1, 310.853851, 217.970688)">
    <path d="M80.04,48.65c0-0.88,0.12-1.71,0.3-2.51c1.72-0.47,3.52-1.13,5.35-2.22 c1.85-1.11,3.39-2.23,4.77-3.37c2.19,1.58,3.67,4.59,3.67,8.1c0,5.11-3.14,9.25-7.04,9.25C83.19,57.91,80.04,53.76,80.04,48.65z" style="fill:#2F2F2F;"/>
    <path d="M48.38,48.65c0-0.88-0.12-1.71-0.3-2.51c-1.72-0.47-3.52-1.13-5.34-2.22 c-1.86-1.11-3.39-2.23-4.77-3.37c-2.19,1.58-3.67,4.59-3.67,8.1c0,5.11,3.14,9.25,7.04,9.25C45.22,57.91,48.38,53.76,48.38,48.65 z" style="fill:#2F2F2F;"/>
  </g>
</svg>