<svg width="31" height="25" viewBox="0 0 31 25" fill="none" xmlns="http://www.w3.org/2000/svg">
<path fill-rule="evenodd" clip-rule="evenodd" d="M13.7674 23.2702C13.8892 21.5645 14.1329 19.8589 14.2547 18.1532C13.7674 17.7877 13.28 17.4221 12.6708 17.0566C12.549 16.9347 12.549 16.813 12.549 16.5693C12.549 16.4475 12.549 16.3256 12.6708 16.2038C12.6708 16.2038 12.6708 16.204 12.6708 16.0821C13.1582 14.8638 13.8892 13.7672 14.4983 12.6707C13.5237 11.9397 12.549 11.0868 11.4525 10.4776C11.2088 10.3558 11.087 10.1121 11.2089 9.86846V9.74651C11.4525 8.40633 12.0616 7.06622 12.7926 5.84787C13.1581 4.99503 13.6455 4.14225 13.8892 3.16758L13.6456 2.92397C10.7215 -4.80413e-05 5.84811 -4.80413e-05 2.92409 2.92397C6.63996e-05 5.84799 6.63996e-05 10.7214 2.92409 13.6454L4.02062 14.7418L13.7674 24.6105C13.6455 24.1232 13.6455 23.7576 13.7674 23.2702Z" fill="#D30045"/>
<path fill-rule="evenodd" clip-rule="evenodd" d="M13.0363 22.5393C13.1581 20.8336 13.2725 19.1769 13.3944 17.4712C12.907 17.1057 12.3944 16.7805 11.9397 16.3259C11.8179 16.2041 11.8179 16.0821 11.8179 15.8384C11.8179 15.7166 11.8179 15.595 11.9397 15.4731C11.9397 15.4731 11.9397 15.473 11.9397 15.3512C12.4271 14.1328 12.7852 13.0677 13.3944 11.9712C12.3944 10.9712 12.0616 10.8041 10.7214 9.74668C10.4777 9.62484 10.3558 9.38117 10.4776 9.1375V9.01585C10.7213 7.67567 11.3305 6.33556 12.0616 5.11721C12.4271 4.26437 12.9144 3.4113 13.1581 2.43662L12.9143 2.19302C9.99031 -0.731005 5.11704 -0.731005 2.19302 2.19302C-0.731005 5.11704 -0.731005 9.99046 2.19302 12.9145L3.28955 14.0109L13.0363 23.8796C12.9145 23.3922 13.0363 23.0266 13.0363 22.5393Z" fill="#FF143A"/>
<path d="M12.407 4.38615C12.6507 3.77698 12.9961 3.2022 13.1179 2.47119L12.8944 2.19307C11.4324 0.731064 9.483 0 7.53365 0C5.5843 0 3.63493 0.731064 2.17292 2.19307C1.80741 2.55858 1.56381 2.8023 1.32014 3.16781C4.00049 0.487456 8.38652 0.487456 11.0669 3.16781L12.407 4.38615Z" fill="#D30045"/>
<path fill-rule="evenodd" clip-rule="evenodd" d="M28.1437 2.19302C25.2197 -0.731005 20.3465 -0.731005 17.4224 2.19302L16.4477 3.16775C15.7167 5.1171 14.6202 6.94467 14.011 9.01585C15.1075 9.74685 16.0822 10.5996 17.1787 11.3306L17.3006 11.4525C17.5443 11.5744 17.6661 11.9397 17.4224 12.1834C16.8133 13.2799 16.0823 14.4984 15.4731 15.7167C15.8386 15.9604 16.326 16.3258 16.6915 16.5695C16.9351 16.6913 17.0569 16.8132 17.0569 17.1787C16.935 19.128 16.6913 20.9555 16.5695 22.9048C16.5695 23.514 16.4477 24.0015 16.4477 24.6107L26.9254 14.1328L28.0219 13.0364C31.1896 9.99058 31.1896 5.23887 28.1437 2.19302Z" fill="#FF143A"/>
<path d="M28.1437 2.19307C26.6817 0.731065 24.7324 0 22.7831 0C21.1992 0 19.6153 0.487575 18.2751 1.46225C20.7118 0.731243 23.3923 1.21846 25.2198 3.16781C27.9001 5.84816 27.9001 10.2343 25.2198 13.0365L24.245 14.0109L16.6914 21.5649C16.6914 22.0522 16.5694 22.4176 16.5694 22.9049C16.5694 23.5141 16.4476 24.0016 16.4476 24.6107L26.9253 14.1329L28.0219 13.0365C31.1896 9.99064 31.1895 5.23893 28.1437 2.19307Z" fill="#D30045"/>
<path opacity="0.4" d="M2.95251 9.47119C2.20834 8.23311 2.20834 6.70935 2.95251 5.47127C3.69668 4.23318 4.99905 3.47119 6.39438 3.47119" stroke="#FF7289" stroke-width="3.99726" stroke-miterlimit="7.9973" stroke-linecap="round" stroke-linejoin="round"/>
</svg>
