<svg width="29" height="26" viewBox="0 0 29 26" fill="none" xmlns="http://www.w3.org/2000/svg">
<path fill-rule="evenodd" clip-rule="evenodd" d="M2.28364 2.29422C-0.761214 5.35044 -0.761214 10.2712 2.28364 13.3275L3.38282 14.431L14.3749 25.4642L25.3672 14.431L26.4664 13.3275C29.5112 10.2712 29.5112 5.35044 26.4664 2.29422C23.4215 -0.762135 18.5191 -0.762135 15.4743 2.29422L14.3749 3.39767L13.2759 2.29422C10.231 -0.762135 5.32837 -0.762135 2.28364 2.29422Z" fill="#FF143A"/>
<path opacity="0.4" d="M3.21555 10.4724C2.74944 9.6651 2.50397 8.74929 2.50397 7.81707C2.50397 6.88484 2.74944 5.96904 3.21555 5.16171C3.68166 4.35438 4.352 3.68389 5.15933 3.21778C5.96666 2.75167 6.88246 2.50635 7.81469 2.50635" stroke="white" stroke-width="1.99933" stroke-linecap="round" stroke-linejoin="round"/>
<path fill-rule="evenodd" clip-rule="evenodd" d="M7.78016 0.000610147C5.79333 0.000610147 3.80632 0.764085 2.28396 2.29232C1.96806 2.60934 1.69237 2.95216 1.44196 3.30517C1.45445 3.29267 1.45444 3.29009 1.46194 3.28259C4.24101 0.493026 8.716 0.493026 11.4952 3.28259L12.9774 4.77806L13.9805 3.76979C14.1093 3.64046 14.245 3.52348 14.3807 3.40615L13.2767 2.29202C11.7543 0.76378 9.7673 0 7.78047 0L7.78016 0.000610147ZM20.9691 0.000610147C19.3493 0.000610147 17.7343 0.517515 16.3662 1.5333C18.8111 0.750187 21.5877 1.32936 23.5342 3.2832C26.3135 6.07277 26.3135 10.5634 23.5342 13.3531L22.5311 14.361L12.9225 24.0062L14.3746 25.4633L25.367 14.4294L26.4653 13.3262C29.5102 10.2699 29.5102 5.34855 26.4653 2.29232C24.9429 0.764085 22.9559 0.000610147 20.9691 0.000610147Z" fill="#D30045"/>
</svg>
