<?xml version="1.0" encoding="UTF-8" standalone="no"?>
<!-- Generator: Adobe Illustrator 22.0.0, SVG Export Plug-In . SVG Version: 6.00 Build 0)  -->

<svg
   xmlns:dc="http://purl.org/dc/elements/1.1/"
   xmlns:cc="http://creativecommons.org/ns#"
   xmlns:rdf="http://www.w3.org/1999/02/22-rdf-syntax-ns#"
   xmlns:svg="http://www.w3.org/2000/svg"
   xmlns="http://www.w3.org/2000/svg"
   xmlns:sodipodi="http://sodipodi.sourceforge.net/DTD/sodipodi-0.dtd"
   xmlns:inkscape="http://www.inkscape.org/namespaces/inkscape"
   version="1.1"
   x="0px"
   y="0px"
   viewBox="0 0 125.95658 43.232346"
   xml:space="preserve"
   id="svg43"
   sodipodi:docname="uspy.svg"
   width="125.95658"
   height="43.232346"
   inkscape:version="0.92.3 (2405546, 2018-03-11)"><metadata
   id="metadata49"><rdf:RDF><cc:Work
       rdf:about=""><dc:format>image/svg+xml</dc:format><dc:type
         rdf:resource="http://purl.org/dc/dcmitype/StillImage" /><dc:title></dc:title></cc:Work></rdf:RDF></metadata><defs
   id="defs47" /><sodipodi:namedview
   pagecolor="#ffffff"
   bordercolor="#666666"
   borderopacity="1"
   objecttolerance="10"
   gridtolerance="10"
   guidetolerance="10"
   inkscape:pageopacity="0"
   inkscape:pageshadow="2"
   inkscape:window-width="2560"
   inkscape:window-height="1048"
   id="namedview45"
   showgrid="false"
   fit-margin-top="0"
   fit-margin-left="0"
   fit-margin-right="0"
   fit-margin-bottom="0"
   inkscape:zoom="1.5733333"
   inkscape:cx="77.514125"
   inkscape:cy="35.444715"
   inkscape:window-x="0"
   inkscape:window-y="0"
   inkscape:window-maximized="1"
   inkscape:current-layer="svg43" />
<style
   type="text/css"
   id="style2">
	.st0{fill:#FFFFFF;}
	.st1{fill:none;stroke:#FFFFFF;stroke-miterlimit:10;}
</style>
<g
   id="Layer_1"
   transform="translate(-56.943417,-125.86765)">
	<g
   id="g26">
		<g
   id="g12">
			<path
   class="st0"
   d="m 98.9,147 v -0.1 c 0,0 0,0 0,0.1 z"
   id="path4"
   inkscape:connector-curvature="0"
   style="fill:#ffffff" />
			<path
   class="st0"
   d="m 102.6,144 c 0,0 0,0 0,0 0,-0.1 0,-0.1 0,0 0.3,-1.9 -1.5,-2.9 -1.5,-2.9 0,0 0,0 0,0 -1.5,1.3 -2.3,3 -2.3,5 0,0.1 0,0.2 0,0.3 0.2,0 3.1,-0.8 3.8,-2.4 z"
   id="path6"
   inkscape:connector-curvature="0"
   style="fill:#ffffff" />
			<path
   class="st0"
   d="m 103.2,143.1 v 0 c 1.2,-1.3 3.5,-1.9 6.7,-1.9 2.1,0 3.9,0.3 5.4,1 1.5,0.6 2.7,1.6 3.5,2.7 0.3,0.5 0.8,0.7 1.4,0.7 0.3,0 0.5,-0.1 0.7,-0.2 0.5,-0.3 0.7,-0.7 0.7,-1.2 0,-0.3 -0.1,-0.5 -0.3,-0.8 -0.9,-1.5 -2.4,-2.8 -4.4,-3.7 -2.1,-0.9 -4.4,-1.4 -7,-1.4 -3.4,0 -6.1,0.7 -8.1,2.1 -0.1,0.1 -0.2,0.1 -0.3,0.2 1.6,1.1 1.7,2.5 1.7,2.5 z"
   id="path8"
   inkscape:connector-curvature="0"
   style="fill:#ffffff" />
			<path
   class="st0"
   d="m 119.6,155.5 c -1.8,-1.4 -4.9,-2.6 -9.1,-3.6 -2.2,-0.5 -3.8,-1 -5,-1.6 -1.2,-0.5 -2.1,-1.1 -2.6,-1.8 -0.5,-0.7 -0.8,-1.5 -0.8,-2.5 0,-0.2 0,-0.4 0,-0.6 0,0 0,0 0,0 -1.4,1.2 -3.2,1.5 -3.2,1.5 0.2,1.8 1.1,3.4 2.6,4.6 1.8,1.4 4.8,2.5 8.9,3.4 3.1,0.7 5.4,1.5 6.7,2.4 1.3,0.9 2,2.1 2,3.6 0,1.7 -0.7,3 -2,3.9 -1.3,0.9 -3.3,1.4 -5.8,1.4 -2.3,0 -4.3,-0.3 -6.1,-1 -1.8,-0.7 -3.2,-1.7 -4.4,-3 -0.4,-0.5 -0.9,-0.7 -1.4,-0.7 -0.3,0 -0.5,0.1 -0.7,0.3 -0.4,0.4 -0.6,0.8 -0.6,1.1 0,0.3 0.1,0.6 0.3,0.9 1.3,1.6 3.1,2.9 5.3,3.8 2.3,0.9 4.8,1.4 7.5,1.4 3.4,0 6.1,-0.7 8.1,-2.2 2,-1.5 3,-3.4 3,-5.9 0.1,-2.1 -0.8,-4 -2.7,-5.4 z"
   id="path10"
   inkscape:connector-curvature="0"
   style="fill:#ffffff" />
		</g>
		<path
   class="st0"
   d="m 128.8,168.6 c -0.3,-0.3 -0.4,-0.7 -0.4,-1.3 V 144 c 0,-1.6 0.5,-2.8 1.4,-3.7 1,-0.9 2.3,-1.4 4,-1.4 h 7.2 c 8.1,0 12.1,3.4 12.1,10.2 0,3.1 -1,5.5 -3.1,7.2 -2.1,1.7 -5,2.5 -8.9,2.5 h -9.6 v 8.6 c 0,0.5 -0.1,1 -0.4,1.3 -0.3,0.3 -0.7,0.4 -1.2,0.4 -0.5,0 -0.8,-0.2 -1.1,-0.5 z m 18.8,-14.1 c 1.5,-1.1 2.3,-2.9 2.3,-5.4 0,-2.7 -0.7,-4.6 -2.2,-5.8 -1.5,-1.2 -3.6,-1.8 -6.4,-1.8 h -7.4 c -0.7,0 -1.2,0.2 -1.6,0.7 -0.4,0.5 -0.6,1.1 -0.6,1.8 v 12.1 h 9.6 c 2.6,0 4.7,-0.5 6.3,-1.6 z"
   id="path14"
   inkscape:connector-curvature="0"
   style="fill:#ffffff" />
		<path
   class="st0"
   d="m 182.5,138.9 c 0.3,0.3 0.4,0.7 0.4,1.3 v 5.3 c 0,2.4 -0.4,4.6 -1.3,6.5 -0.9,1.9 -2.2,3.5 -3.8,4.7 -1.6,1.2 -3.5,1.9 -5.7,2.2 v 8.5 c 0,0.5 -0.1,1 -0.4,1.3 -0.3,0.3 -0.7,0.4 -1.2,0.4 -0.5,0 -0.9,-0.1 -1.1,-0.4 -0.3,-0.3 -0.4,-0.7 -0.4,-1.3 v -8.5 c -2.2,-0.2 -4.1,-0.9 -5.8,-2.1 -1.7,-1.2 -2.9,-2.7 -3.8,-4.6 -0.9,-1.9 -1.3,-4.2 -1.3,-6.7 v -5.3 c 0,-0.5 0.1,-1 0.4,-1.3 0.3,-0.3 0.7,-0.4 1.1,-0.4 0.5,0 0.9,0.1 1.2,0.4 0.3,0.3 0.4,0.7 0.4,1.3 v 5.4 c 0,3.3 0.8,6 2.4,7.8 1.6,1.8 3.9,2.8 6.8,2.8 2.9,0 5.1,-0.9 6.8,-2.8 1.6,-1.9 2.5,-4.5 2.5,-7.8 v -5.4 c 0,-0.5 0.1,-1 0.4,-1.3 0.3,-0.3 0.7,-0.4 1.2,-0.4 0.5,0 0.9,0.1 1.2,0.4 z"
   id="path16"
   inkscape:connector-curvature="0"
   style="fill:#ffffff" />
		<polygon
   class="st0"
   points="67.3,154.9 70.5,155.9 70.5,142.6 67.3,142.6 "
   id="polygon18"
   style="fill:#ffffff" />
		<g
   id="g24">
			<path
   class="st0"
   d="m 92.3,154.9 v -12 l -3.2,0.1 v 12.8 c 0.1,0.1 2.2,-0.1 3.2,-0.9 z"
   id="path20"
   inkscape:connector-curvature="0"
   style="fill:#ffffff" />
			<path
   class="st0"
   d="m 89.1,156.8 c 0,3 -0.8,5.4 -2.5,7 -1.7,1.7 -4,2.5 -6.9,2.5 -2.9,0 -5.2,-0.8 -6.8,-2.5 -1.6,-1.7 -2.4,-4 -2.4,-7.1 0,0 0,0 0,0 -1.9,0.1 -3.2,-0.8 -3.2,-0.8 v 0.6 c 0,2.6 0.5,4.8 1.5,6.7 1,1.9 2.4,3.3 4.3,4.3 1.9,1 4.1,1.5 6.6,1.5 2.6,0 4.8,-0.5 6.7,-1.5 1.9,-1 3.4,-2.5 4.4,-4.4 1,-1.9 1.5,-4.1 1.5,-6.6 V 156 c -0.1,0.1 -1.3,0.9 -3.2,0.8 z"
   id="path22"
   inkscape:connector-curvature="0"
   style="fill:#ffffff" />
		</g>
	</g>
</g>
<g
   id="Layer_3"
   transform="translate(-56.943417,-125.86765)">
	<path
   class="st0"
   d="m 76.1,149.7 c 0,0 3.6,-4 7.4,0 h -1 c 0,0 -2.6,-2.3 -5.4,0 z"
   id="path29"
   inkscape:connector-curvature="0"
   style="fill:#ffffff" />
	<circle
   class="st1"
   cx="70.800003"
   cy="149.60001"
   r="5.9000001"
   id="circle31"
   style="fill:none;stroke:#ffffff;stroke-miterlimit:10" />
	<circle
   class="st1"
   cx="88.900002"
   cy="149.60001"
   r="5.9000001"
   id="circle33"
   style="fill:none;stroke:#ffffff;stroke-miterlimit:10" />
</g>
<g
   id="Layer_2"
   transform="translate(-56.943417,-125.86765)">
	<g
   id="g40">
		<path
   class="st0"
   d="m 93.1,138.9 c 0,0 -0.2,1.3 0.4,2.7 -3.8,1.5 -25.8,-0.1 -27.6,-1.1 0.4,-1 0.6,-2.5 0.6,-2.5 -5.8,0 -16.8,4.7 -2.6,8.6 7.6,1.5 20.8,2 31.7,0.5 11.7,-1.7 7.1,-8 -2.5,-8.2 z"
   id="path36"
   inkscape:connector-curvature="0"
   style="fill:#ffffff" />
		<path
   class="st0"
   d="m 93.1,138.9 c 0.1,-5.1 0.4,-3 -0.8,-9.8 -1.3,-6.8 -7.1,-0.9 -10.6,0 -3.4,0.9 -6.3,-1.1 -6.3,-1.1 0,0 -6.5,-5.2 -7.9,3.4 -0.6,4.8 -0.8,5.6 -1,6.6 10.9,1.5 26.1,1.5 26.6,0.9 z"
   id="path38"
   inkscape:connector-curvature="0"
   style="fill:#ffffff" />
	</g>
</g>
</svg>