<svg width="102" height="102" viewBox="0 0 102 102" fill="none" xmlns="http://www.w3.org/2000/svg">
<path d="M51 102C79.1665 102 102 79.1665 102 51C102 22.8335 79.1665 0 51 0C22.8335 0 0 22.8335 0 51C0 79.1665 22.8335 102 51 102Z" fill="#C6CED6"/>
<path d="M88.6048 84.6731C79.7692 94.7267 67.3344 100.902 53.9849 101.867C40.6353 102.832 27.4418 98.5084 17.2524 89.8298L21.6268 77.6237C22.6153 75.4558 24.1753 73.5978 26.1395 72.249C28.1037 70.9002 30.398 70.1115 32.7763 69.9675L35.5592 69.7966L42.1949 64.0735C42.1949 64.0735 60.0746 63.4351 59.8093 63.1294L70.6397 69.6438L70.6307 69.5988L74.8882 69.8596C77.2667 70.003 79.5612 70.7915 81.5255 72.1403C83.4898 73.4892 85.0497 75.3475 86.0377 77.5159L88.6048 84.6731Z" fill="#68417F"/>
<path d="M53.1924 15.7351C57.1822 15.7351 60.3856 16.8285 62.8025 19.0152C65.2578 21.1636 66.4855 24.1368 66.4855 27.9348C66.4855 31.6945 65.277 34.5718 62.8601 36.5667C60.4432 38.5233 57.2398 39.5015 53.2499 39.5015L53.0197 43.9326H45.9416L45.6539 34.1498H48.2434C51.5811 34.1498 54.1515 33.7086 55.9546 32.8262C57.7577 31.9439 58.6592 30.3326 58.6592 27.9924C58.6592 26.3044 58.1605 24.9616 57.163 23.9642C56.2039 22.9667 54.8804 22.468 53.1924 22.468C51.4276 22.468 50.0465 22.9475 49.0491 23.9066C48.09 24.8657 47.6104 26.1893 47.6104 27.8773H40.0144C39.976 25.5371 40.4748 23.4463 41.5106 21.6048C42.5464 19.7633 44.0618 18.3247 46.0567 17.2888C48.09 16.253 50.4685 15.7351 53.1924 15.7351ZM49.4519 57.686C47.9941 57.686 46.7856 57.2448 45.8265 56.3625C44.9058 55.4417 44.4454 54.31 44.4454 52.9673C44.4454 51.6245 44.9058 50.512 45.8265 49.6296C46.7856 48.7089 47.9941 48.2485 49.4519 48.2485C50.8714 48.2485 52.0415 48.7089 52.9622 49.6296C53.8829 50.512 54.3433 51.6245 54.3433 52.9673C54.3433 54.31 53.8829 55.4417 52.9622 56.3625C52.0415 57.2448 50.8714 57.686 49.4519 57.686Z" fill="#68417F"/>
</svg>
