<?xml version="1.0" encoding="UTF-8" standalone="no"?>
<svg
   xmlns:dc="http://purl.org/dc/elements/1.1/"
   xmlns:cc="http://creativecommons.org/ns#"
   xmlns:rdf="http://www.w3.org/1999/02/22-rdf-syntax-ns#"
   xmlns:svg="http://www.w3.org/2000/svg"
   xmlns="http://www.w3.org/2000/svg"
   xmlns:sodipodi="http://sodipodi.sourceforge.net/DTD/sodipodi-0.dtd"
   xmlns:inkscape="http://www.inkscape.org/namespaces/inkscape"
   width="121"
   height="44"
   viewBox="0 0 121 44"
   fill="none"
   version="1.1"
   id="svg21"
   sodipodi:docname="requirements_graph_captions.svg"
   inkscape:version="0.92.5 (2060ec1f9f, 2020-04-08)">
  <metadata
     id="metadata25">
    <rdf:RDF>
      <cc:Work
         rdf:about="">
        <dc:format>image/svg+xml</dc:format>
        <dc:type
           rdf:resource="http://purl.org/dc/dcmitype/StillImage" />
      </cc:Work>
    </rdf:RDF>
  </metadata>
  <sodipodi:namedview
     pagecolor="#ffffff"
     bordercolor="#666666"
     borderopacity="1"
     objecttolerance="10"
     gridtolerance="10"
     guidetolerance="10"
     inkscape:pageopacity="0"
     inkscape:pageshadow="2"
     inkscape:window-width="2205"
     inkscape:window-height="964"
     id="namedview23"
     showgrid="false"
     inkscape:zoom="3.3057851"
     inkscape:cx="7.41125"
     inkscape:cy="22"
     inkscape:window-x="0"
     inkscape:window-y="24"
     inkscape:window-maximized="0"
     inkscape:current-layer="g14" />
  <g
     clip-path="url(#clip0)"
     id="g14">
    <path
       d="M0 11.5603H28.807"
       stroke="black"
       stroke-width="1.05833"
       id="path2"
       style="stroke-width:3;stroke-miterlimit:4;stroke-dasharray:none" />
    <path
       d="M0.485962 32.6406H29.293"
       stroke="black"
       stroke-width="1.05833"
       stroke-dasharray="2.12 2.12"
       id="path4"
       style="stroke-width:1.05799997;stroke-miterlimit:4;stroke-dasharray:none;stroke-dashoffset:0" />
    <path
       d="M28.2834 4.15873L40.7594 11.3617L28.2834 18.5647L28.2834 4.15873Z"
       fill="black"
       id="path6" />
    <path
       d="M28.2834 25.4485L40.7594 32.6515L28.2834 39.8545L28.2834 25.4485Z"
       fill="black"
       id="path8" />
    <path
       d="M50.5665 11.8364H48.7296V15H47.6929V7.17969H50.2818C51.1627 7.17969 51.8394 7.38021 52.3121 7.78125C52.7883 8.18229 53.0264 8.76595 53.0264 9.53223C53.0264 10.0192 52.8939 10.4435 52.629 10.8052C52.3676 11.1668 52.0023 11.4372 51.5333 11.6162L53.3702 14.9355V15H52.2637L50.5665 11.8364ZM48.7296 10.9932H50.314C50.8261 10.9932 51.2325 10.8607 51.5333 10.5957C51.8376 10.3307 51.9898 9.97624 51.9898 9.53223C51.9898 9.04883 51.8448 8.67822 51.5547 8.42041C51.2683 8.1626 50.8529 8.0319 50.3087 8.02832H48.7296V10.9932ZM56.7325 15.1074C55.9447 15.1074 55.3038 14.8496 54.8096 14.334C54.3155 13.8148 54.0684 13.1219 54.0684 12.2554V12.0728C54.0684 11.4963 54.1776 10.9824 54.3961 10.5312C54.6181 10.0765 54.926 9.72201 55.3199 9.46777C55.7173 9.20996 56.147 9.08105 56.6089 9.08105C57.3645 9.08105 57.9517 9.32992 58.3707 9.82764C58.7896 10.3254 58.9991 11.0379 58.9991 11.9653V12.3789H55.0621C55.0764 12.9518 55.2429 13.4155 55.5616 13.77C55.8839 14.1209 56.2921 14.2964 56.7862 14.2964C57.1371 14.2964 57.4343 14.2248 57.6778 14.0815C57.9213 13.9383 58.1343 13.7485 58.317 13.5122L58.9239 13.9849C58.4369 14.7332 57.7064 15.1074 56.7325 15.1074ZM56.6089 9.89746C56.2079 9.89746 55.8713 10.0443 55.5992 10.3379C55.327 10.6279 55.1588 11.0361 55.0943 11.5625H58.0054V11.4873C57.9768 10.9824 57.8407 10.5921 57.5972 10.3164C57.3537 10.0371 57.0243 9.89746 56.6089 9.89746ZM59.9122 12.0459C59.9122 11.1328 60.1216 10.4113 60.5406 9.88135C60.9595 9.34782 61.5217 9.08105 62.2271 9.08105C62.9146 9.08105 63.4571 9.31201 63.8546 9.77393L63.8975 9.18848H64.8106V17.2344H63.817V14.4629C63.4159 14.8926 62.8824 15.1074 62.2164 15.1074C61.5145 15.1074 60.9542 14.8353 60.5352 14.291C60.1199 13.7432 59.9122 13.0181 59.9122 12.1157V12.0459ZM60.9058 12.1587C60.9058 12.8247 61.0455 13.3475 61.3248 13.7271C61.6076 14.1066 61.9872 14.2964 62.4634 14.2964C63.0543 14.2964 63.5054 14.035 63.817 13.5122V10.6655C63.5019 10.1535 63.0543 9.89746 62.4742 9.89746C61.9944 9.89746 61.613 10.089 61.3301 10.4722C61.0473 10.8517 60.9058 11.4139 60.9058 12.1587ZM69.9937 14.4253C69.607 14.88 69.0394 15.1074 68.2911 15.1074C67.6716 15.1074 67.199 14.9284 66.8731 14.5703C66.5508 14.2087 66.3879 13.6751 66.3843 12.9697V9.18848H67.378V12.9429C67.378 13.8237 67.7361 14.2642 68.4522 14.2642C69.2113 14.2642 69.7162 13.9813 69.9669 13.4155V9.18848H70.9605V15H70.0152L69.9937 14.4253ZM73.5547 15H72.5611V9.18848H73.5547V15ZM72.4805 7.64697C72.4805 7.48584 72.5289 7.34977 72.6255 7.23877C72.7258 7.12777 72.8726 7.07227 73.066 7.07227C73.2593 7.07227 73.4061 7.12777 73.5064 7.23877C73.6067 7.34977 73.6568 7.48584 73.6568 7.64697C73.6568 7.80811 73.6067 7.94238 73.5064 8.0498C73.4061 8.15723 73.2593 8.21094 73.066 8.21094C72.8726 8.21094 72.7258 8.15723 72.6255 8.0498C72.5289 7.94238 72.4805 7.80811 72.4805 7.64697ZM78.5338 13.4585C78.5338 13.1899 78.4317 12.9823 78.2276 12.8354C78.0271 12.6851 77.6744 12.5562 77.1695 12.4487C76.6682 12.3413 76.2689 12.2124 75.9717 12.062C75.6781 11.9116 75.4597 11.7326 75.3165 11.5249C75.1768 11.3172 75.107 11.0701 75.107 10.7837C75.107 10.3075 75.3075 9.90462 75.7086 9.5752C76.1132 9.24577 76.6288 9.08105 77.2554 9.08105C77.9143 9.08105 78.4478 9.25114 78.856 9.59131C79.2678 9.93148 79.4737 10.3665 79.4737 10.8965H78.4747C78.4747 10.6243 78.3583 10.3898 78.1255 10.1929C77.8964 9.99593 77.6063 9.89746 77.2554 9.89746C76.8938 9.89746 76.6109 9.97624 76.4068 10.1338C76.2027 10.2913 76.1006 10.4972 76.1006 10.7515C76.1006 10.9914 76.1955 11.1722 76.3853 11.2939C76.5751 11.4157 76.9171 11.5321 77.4112 11.6431C77.9089 11.7541 78.3117 11.8866 78.6197 12.0405C78.9276 12.1945 79.155 12.3807 79.3018 12.5991C79.4522 12.814 79.5274 13.0771 79.5274 13.3887C79.5274 13.9079 79.3197 14.325 78.9044 14.6401C78.489 14.9517 77.9501 15.1074 77.2877 15.1074C76.8222 15.1074 76.4104 15.0251 76.0523 14.8604C75.6942 14.6956 75.4131 14.4665 75.209 14.1729C75.0085 13.8757 74.9083 13.5552 74.9083 13.2114H75.9019C75.9198 13.5444 76.0523 13.8094 76.2994 14.0063C76.55 14.1997 76.8795 14.2964 77.2877 14.2964C77.6636 14.2964 77.9644 14.2212 78.19 14.0708C78.4192 13.9168 78.5338 13.7127 78.5338 13.4585ZM81.9014 15H80.9078V9.18848H81.9014V15ZM80.8272 7.64697C80.8272 7.48584 80.8755 7.34977 80.9722 7.23877C81.0725 7.12777 81.2193 7.07227 81.4127 7.07227C81.606 7.07227 81.7528 7.12777 81.8531 7.23877C81.9533 7.34977 82.0035 7.48584 82.0035 7.64697C82.0035 7.80811 81.9533 7.94238 81.8531 8.0498C81.7528 8.15723 81.606 8.21094 81.4127 8.21094C81.2193 8.21094 81.0725 8.15723 80.9722 8.0498C80.8755 7.94238 80.8272 7.80811 80.8272 7.64697ZM84.8448 7.78125V9.18848H85.9297V9.95654H84.8448V13.5605C84.8448 13.7933 84.8931 13.9688 84.9898 14.0869C85.0865 14.2015 85.2512 14.2588 85.4839 14.2588C85.5985 14.2588 85.7561 14.2373 85.9566 14.1943V15C85.6952 15.0716 85.441 15.1074 85.1939 15.1074C84.7499 15.1074 84.4151 14.9731 84.1895 14.7046C83.9639 14.436 83.8511 14.0547 83.8511 13.5605V9.95654H82.793V9.18848H83.8511V7.78125H84.8448ZM86.7247 12.0405C86.7247 11.4712 86.8357 10.9591 87.0577 10.5044C87.2833 10.0496 87.5948 9.69873 87.9922 9.45166C88.3933 9.20459 88.8498 9.08105 89.3619 9.08105C90.1532 9.08105 90.7924 9.35498 91.2794 9.90283C91.7699 10.4507 92.0152 11.1794 92.0152 12.0889V12.1587C92.0152 12.7244 91.906 13.2329 91.6876 13.6841C91.4727 14.1317 91.163 14.4808 90.7584 14.7314C90.3573 14.9821 89.8954 15.1074 89.3726 15.1074C88.5849 15.1074 87.9457 14.8335 87.4551 14.2856C86.9682 13.7378 86.7247 13.0127 86.7247 12.1104V12.0405ZM87.7237 12.1587C87.7237 12.8032 87.8723 13.3206 88.1695 13.7109C88.4703 14.1012 88.8713 14.2964 89.3726 14.2964C89.8775 14.2964 90.2785 14.0994 90.5757 13.7056C90.8729 13.3081 91.0215 12.7531 91.0215 12.0405C91.0215 11.4032 90.8694 10.8875 90.565 10.4937C90.2642 10.0962 89.8632 9.89746 89.3619 9.89746C88.8713 9.89746 88.4756 10.0926 88.1749 10.4829C87.8741 10.8732 87.7237 11.4318 87.7237 12.1587ZM96.4786 15V9.95654H95.5601V9.18848H96.4786V8.59229C96.4786 7.96924 96.6451 7.48763 96.9781 7.14746C97.3111 6.80729 97.782 6.63721 98.3907 6.63721C98.6199 6.63721 98.8472 6.66764 99.0728 6.72852L99.0191 7.53418C98.8508 7.50195 98.6718 7.48584 98.482 7.48584C98.1597 7.48584 97.9109 7.58073 97.7354 7.77051C97.56 7.95671 97.4722 8.22526 97.4722 8.57617V9.18848H98.713V9.95654H97.4722V15H96.4786ZM99.5508 12.0405C99.5508 11.4712 99.6618 10.9591 99.8839 10.5044C100.109 10.0496 100.421 9.69873 100.818 9.45166C101.219 9.20459 101.676 9.08105 102.188 9.08105C102.979 9.08105 103.619 9.35498 104.106 9.90283C104.596 10.4507 104.841 11.1794 104.841 12.0889V12.1587C104.841 12.7244 104.732 13.2329 104.514 13.6841C104.299 14.1317 103.989 14.4808 103.585 14.7314C103.183 14.9821 102.722 15.1074 102.199 15.1074C101.411 15.1074 100.772 14.8335 100.281 14.2856C99.7943 13.7378 99.5508 13.0127 99.5508 12.1104V12.0405ZM100.55 12.1587C100.55 12.8032 100.698 13.3206 100.996 13.7109C101.296 14.1012 101.697 14.2964 102.199 14.2964C102.704 14.2964 103.105 14.0994 103.402 13.7056C103.699 13.3081 103.848 12.7531 103.848 12.0405C103.848 11.4032 103.696 10.8875 103.391 10.4937C103.09 10.0962 102.689 9.89746 102.188 9.89746C101.697 9.89746 101.302 10.0926 101.001 10.4829C100.7 10.8732 100.55 11.4318 100.55 12.1587ZM108.897 10.0801C108.746 10.055 108.583 10.0425 108.408 10.0425C107.756 10.0425 107.314 10.32 107.081 10.875V15H106.087V9.18848H107.054L107.07 9.85986C107.396 9.34066 107.858 9.08105 108.456 9.08105C108.649 9.08105 108.796 9.10612 108.897 9.15625V10.0801ZM111.432 7.78125V9.18848H112.517V9.95654H111.432V13.5605C111.432 13.7933 111.48 13.9688 111.577 14.0869C111.673 14.2015 111.838 14.2588 112.071 14.2588C112.185 14.2588 112.343 14.2373 112.544 14.1943V15C112.282 15.0716 112.028 15.1074 111.781 15.1074C111.337 15.1074 111.002 14.9731 110.776 14.7046C110.551 14.436 110.438 14.0547 110.438 13.5605V9.95654H109.38V9.18848H110.438V7.78125H111.432ZM116.094 15.1074C115.306 15.1074 114.665 14.8496 114.171 14.334C113.677 13.8148 113.43 13.1219 113.43 12.2554V12.0728C113.43 11.4963 113.539 10.9824 113.757 10.5312C113.979 10.0765 114.287 9.72201 114.681 9.46777C115.079 9.20996 115.508 9.08105 115.97 9.08105C116.726 9.08105 117.313 9.32992 117.732 9.82764C118.151 10.3254 118.36 11.0379 118.36 11.9653V12.3789H114.423C114.438 12.9518 114.604 13.4155 114.923 13.77C115.245 14.1209 115.653 14.2964 116.148 14.2964C116.498 14.2964 116.796 14.2248 117.039 14.0815C117.283 13.9383 117.496 13.7485 117.678 13.5122L118.285 13.9849C117.798 14.7332 117.068 15.1074 116.094 15.1074ZM115.97 9.89746C115.569 9.89746 115.233 10.0443 114.961 10.3379C114.688 10.6279 114.52 11.0361 114.456 11.5625H117.367V11.4873C117.338 10.9824 117.202 10.5921 116.959 10.3164C116.715 10.0371 116.386 9.89746 115.97 9.89746Z"
       fill="black"
       id="path10" />
    <path
       d="M50.5665 32.8364H48.7296V36H47.6929V28.1797H50.2818C51.1627 28.1797 51.8394 28.3802 52.3121 28.7812C52.7883 29.1823 53.0264 29.766 53.0264 30.5322C53.0264 31.0192 52.8939 31.4435 52.629 31.8052C52.3676 32.1668 52.0023 32.4372 51.5333 32.6162L53.3702 35.9355V36H52.2637L50.5665 32.8364ZM48.7296 31.9932H50.314C50.8261 31.9932 51.2325 31.8607 51.5333 31.5957C51.8376 31.3307 51.9898 30.9762 51.9898 30.5322C51.9898 30.0488 51.8448 29.6782 51.5547 29.4204C51.2683 29.1626 50.8529 29.0319 50.3087 29.0283H48.7296V31.9932ZM56.7325 36.1074C55.9447 36.1074 55.3038 35.8496 54.8096 35.334C54.3155 34.8148 54.0684 34.1219 54.0684 33.2554V33.0728C54.0684 32.4963 54.1776 31.9824 54.3961 31.5312C54.6181 31.0765 54.926 30.722 55.3199 30.4678C55.7173 30.21 56.147 30.0811 56.6089 30.0811C57.3645 30.0811 57.9517 30.3299 58.3707 30.8276C58.7896 31.3254 58.9991 32.0379 58.9991 32.9653V33.3789H55.0621C55.0764 33.9518 55.2429 34.4155 55.5616 34.77C55.8839 35.1209 56.2921 35.2964 56.7862 35.2964C57.1371 35.2964 57.4343 35.2248 57.6778 35.0815C57.9213 34.9383 58.1343 34.7485 58.317 34.5122L58.9239 34.9849C58.4369 35.7332 57.7064 36.1074 56.7325 36.1074ZM56.6089 30.8975C56.2079 30.8975 55.8713 31.0443 55.5992 31.3379C55.327 31.6279 55.1588 32.0361 55.0943 32.5625H58.0054V32.4873C57.9768 31.9824 57.8407 31.5921 57.5972 31.3164C57.3537 31.0371 57.0243 30.8975 56.6089 30.8975ZM59.9122 33.0459C59.9122 32.1328 60.1216 31.4113 60.5406 30.8813C60.9595 30.3478 61.5217 30.0811 62.2271 30.0811C62.9146 30.0811 63.4571 30.312 63.8546 30.7739L63.8975 30.1885H64.8106V38.2344H63.817V35.4629C63.4159 35.8926 62.8824 36.1074 62.2164 36.1074C61.5145 36.1074 60.9542 35.8353 60.5352 35.291C60.1199 34.7432 59.9122 34.0181 59.9122 33.1157V33.0459ZM60.9058 33.1587C60.9058 33.8247 61.0455 34.3475 61.3248 34.7271C61.6076 35.1066 61.9872 35.2964 62.4634 35.2964C63.0543 35.2964 63.5054 35.035 63.817 34.5122V31.6655C63.5019 31.1535 63.0543 30.8975 62.4742 30.8975C61.9944 30.8975 61.613 31.089 61.3301 31.4722C61.0473 31.8517 60.9058 32.4139 60.9058 33.1587ZM69.9937 35.4253C69.607 35.88 69.0394 36.1074 68.2911 36.1074C67.6716 36.1074 67.199 35.9284 66.8731 35.5703C66.5508 35.2087 66.3879 34.6751 66.3843 33.9697V30.1885H67.378V33.9429C67.378 34.8237 67.7361 35.2642 68.4522 35.2642C69.2113 35.2642 69.7162 34.9813 69.9669 34.4155V30.1885H70.9605V36H70.0152L69.9937 35.4253ZM73.5547 36H72.5611V30.1885H73.5547V36ZM72.4805 28.647C72.4805 28.4858 72.5289 28.3498 72.6255 28.2388C72.7258 28.1278 72.8726 28.0723 73.066 28.0723C73.2593 28.0723 73.4061 28.1278 73.5064 28.2388C73.6067 28.3498 73.6568 28.4858 73.6568 28.647C73.6568 28.8081 73.6067 28.9424 73.5064 29.0498C73.4061 29.1572 73.2593 29.2109 73.066 29.2109C72.8726 29.2109 72.7258 29.1572 72.6255 29.0498C72.5289 28.9424 72.4805 28.8081 72.4805 28.647ZM78.5338 34.4585C78.5338 34.1899 78.4317 33.9823 78.2276 33.8354C78.0271 33.6851 77.6744 33.5562 77.1695 33.4487C76.6682 33.3413 76.2689 33.2124 75.9717 33.062C75.6781 32.9116 75.4597 32.7326 75.3165 32.5249C75.1768 32.3172 75.107 32.0701 75.107 31.7837C75.107 31.3075 75.3075 30.9046 75.7086 30.5752C76.1132 30.2458 76.6288 30.0811 77.2554 30.0811C77.9143 30.0811 78.4478 30.2511 78.856 30.5913C79.2678 30.9315 79.4737 31.3665 79.4737 31.8965H78.4747C78.4747 31.6243 78.3583 31.3898 78.1255 31.1929C77.8964 30.9959 77.6063 30.8975 77.2554 30.8975C76.8938 30.8975 76.6109 30.9762 76.4068 31.1338C76.2027 31.2913 76.1006 31.4972 76.1006 31.7515C76.1006 31.9914 76.1955 32.1722 76.3853 32.2939C76.5751 32.4157 76.9171 32.5321 77.4112 32.6431C77.9089 32.7541 78.3117 32.8866 78.6197 33.0405C78.9276 33.1945 79.155 33.3807 79.3018 33.5991C79.4522 33.814 79.5274 34.0771 79.5274 34.3887C79.5274 34.9079 79.3197 35.325 78.9044 35.6401C78.489 35.9517 77.9501 36.1074 77.2877 36.1074C76.8222 36.1074 76.4104 36.0251 76.0523 35.8604C75.6942 35.6956 75.4131 35.4665 75.209 35.1729C75.0085 34.8757 74.9083 34.5552 74.9083 34.2114H75.9019C75.9198 34.5444 76.0523 34.8094 76.2994 35.0063C76.55 35.1997 76.8795 35.2964 77.2877 35.2964C77.6636 35.2964 77.9644 35.2212 78.19 35.0708C78.4192 34.9168 78.5338 34.7127 78.5338 34.4585ZM81.9014 36H80.9078V30.1885H81.9014V36ZM80.8272 28.647C80.8272 28.4858 80.8755 28.3498 80.9722 28.2388C81.0725 28.1278 81.2193 28.0723 81.4127 28.0723C81.606 28.0723 81.7528 28.1278 81.8531 28.2388C81.9533 28.3498 82.0035 28.4858 82.0035 28.647C82.0035 28.8081 81.9533 28.9424 81.8531 29.0498C81.7528 29.1572 81.606 29.2109 81.4127 29.2109C81.2193 29.2109 81.0725 29.1572 80.9722 29.0498C80.8755 28.9424 80.8272 28.8081 80.8272 28.647ZM84.8448 28.7812V30.1885H85.9297V30.9565H84.8448V34.5605C84.8448 34.7933 84.8931 34.9688 84.9898 35.0869C85.0865 35.2015 85.2512 35.2588 85.4839 35.2588C85.5985 35.2588 85.7561 35.2373 85.9566 35.1943V36C85.6952 36.0716 85.441 36.1074 85.1939 36.1074C84.7499 36.1074 84.4151 35.9731 84.1895 35.7046C83.9639 35.436 83.8511 35.0547 83.8511 34.5605V30.9565H82.793V30.1885H83.8511V28.7812H84.8448ZM86.7247 33.0405C86.7247 32.4712 86.8357 31.9591 87.0577 31.5044C87.2833 31.0496 87.5948 30.6987 87.9922 30.4517C88.3933 30.2046 88.8498 30.0811 89.3619 30.0811C90.1532 30.0811 90.7924 30.355 91.2794 30.9028C91.7699 31.4507 92.0152 32.1794 92.0152 33.0889V33.1587C92.0152 33.7244 91.906 34.2329 91.6876 34.6841C91.4727 35.1317 91.163 35.4808 90.7584 35.7314C90.3573 35.9821 89.8954 36.1074 89.3726 36.1074C88.5849 36.1074 87.9457 35.8335 87.4551 35.2856C86.9682 34.7378 86.7247 34.0127 86.7247 33.1104V33.0405ZM87.7237 33.1587C87.7237 33.8032 87.8723 34.3206 88.1695 34.7109C88.4703 35.1012 88.8713 35.2964 89.3726 35.2964C89.8775 35.2964 90.2785 35.0994 90.5757 34.7056C90.8729 34.3081 91.0215 33.7531 91.0215 33.0405C91.0215 32.4032 90.8694 31.8875 90.565 31.4937C90.2642 31.0962 89.8632 30.8975 89.3619 30.8975C88.8713 30.8975 88.4756 31.0926 88.1749 31.4829C87.8741 31.8732 87.7237 32.4318 87.7237 33.1587ZM96.4786 36V30.9565H95.5601V30.1885H96.4786V29.5923C96.4786 28.9692 96.6451 28.4876 96.9781 28.1475C97.3111 27.8073 97.782 27.6372 98.3907 27.6372C98.6199 27.6372 98.8472 27.6676 99.0728 27.7285L99.0191 28.5342C98.8508 28.502 98.6718 28.4858 98.482 28.4858C98.1597 28.4858 97.9109 28.5807 97.7354 28.7705C97.56 28.9567 97.4722 29.2253 97.4722 29.5762V30.1885H98.713V30.9565H97.4722V36H96.4786ZM102.623 31.0801C102.473 31.055 102.31 31.0425 102.134 31.0425C101.483 31.0425 101.04 31.32 100.808 31.875V36H99.814V30.1885H100.781L100.797 30.8599C101.123 30.3407 101.585 30.0811 102.183 30.0811C102.376 30.0811 102.523 30.1061 102.623 30.1562V31.0801ZM106.915 36C106.857 35.8854 106.811 35.6813 106.775 35.3877C106.313 35.8675 105.762 36.1074 105.121 36.1074C104.548 36.1074 104.077 35.9463 103.708 35.624C103.343 35.2982 103.16 34.8864 103.16 34.3887C103.16 33.7835 103.389 33.3145 103.848 32.9814C104.31 32.6449 104.958 32.4766 105.792 32.4766H106.759V32.02C106.759 31.6727 106.655 31.397 106.447 31.1929C106.24 30.9852 105.933 30.8813 105.529 30.8813C105.174 30.8813 104.877 30.9709 104.637 31.1499C104.397 31.3289 104.277 31.5456 104.277 31.7998H103.278C103.278 31.5098 103.38 31.2305 103.585 30.9619C103.792 30.6898 104.072 30.4749 104.422 30.3174C104.777 30.1598 105.165 30.0811 105.588 30.0811C106.258 30.0811 106.782 30.2493 107.162 30.5859C107.541 30.9189 107.738 31.3791 107.753 31.9663V34.6411C107.753 35.1746 107.821 35.599 107.957 35.9141V36H106.915ZM105.266 35.2427C105.577 35.2427 105.873 35.1621 106.152 35.001C106.431 34.8398 106.634 34.6304 106.759 34.3726V33.1802H105.98C104.763 33.1802 104.154 33.5365 104.154 34.249C104.154 34.5605 104.258 34.804 104.465 34.9795C104.673 35.1549 104.94 35.2427 105.266 35.2427ZM111.641 35.2964C111.996 35.2964 112.305 35.189 112.57 34.9741C112.835 34.7593 112.982 34.4907 113.011 34.1685H113.951C113.933 34.5015 113.818 34.8184 113.607 35.1191C113.396 35.4199 113.113 35.6598 112.758 35.8389C112.407 36.0179 112.035 36.1074 111.641 36.1074C110.85 36.1074 110.22 35.8442 109.751 35.3179C109.285 34.7879 109.052 34.0646 109.052 33.1479V32.9814C109.052 32.4157 109.156 31.9126 109.364 31.4722C109.572 31.0317 109.869 30.6898 110.255 30.4463C110.646 30.2028 111.106 30.0811 111.636 30.0811C112.287 30.0811 112.828 30.2762 113.258 30.6665C113.691 31.0568 113.922 31.5635 113.951 32.1865H113.011C112.982 31.8105 112.839 31.5026 112.581 31.2627C112.327 31.0192 112.012 30.8975 111.636 30.8975C111.131 30.8975 110.739 31.0801 110.46 31.4453C110.184 31.807 110.046 32.3315 110.046 33.019V33.207C110.046 33.8766 110.184 34.3923 110.46 34.7539C110.735 35.1156 111.129 35.2964 111.641 35.2964ZM114.805 33.0405C114.805 32.4712 114.916 31.9591 115.138 31.5044C115.363 31.0496 115.675 30.6987 116.072 30.4517C116.473 30.2046 116.93 30.0811 117.442 30.0811C118.233 30.0811 118.872 30.355 119.359 30.9028C119.85 31.4507 120.095 32.1794 120.095 33.0889V33.1587C120.095 33.7244 119.986 34.2329 119.768 34.6841C119.553 35.1317 119.243 35.4808 118.838 35.7314C118.437 35.9821 117.975 36.1074 117.453 36.1074C116.665 36.1074 116.026 35.8335 115.535 35.2856C115.048 34.7378 114.805 34.0127 114.805 33.1104V33.0405ZM115.804 33.1587C115.804 33.8032 115.952 34.3206 116.25 34.7109C116.55 35.1012 116.951 35.2964 117.453 35.2964C117.958 35.2964 118.359 35.0994 118.656 34.7056C118.953 34.3081 119.102 33.7531 119.102 33.0405C119.102 32.4032 118.949 31.8875 118.645 31.4937C118.344 31.0962 117.943 30.8975 117.442 30.8975C116.951 30.8975 116.556 31.0926 116.255 31.4829C115.954 31.8732 115.804 32.4318 115.804 33.1587Z"
       fill="black"
       id="path12" />
  </g>
  <defs
     id="defs19">
    <clipPath
       id="clip0">
      <rect
         width="121"
         height="44"
         fill="white"
         id="rect16" />
    </clipPath>
  </defs>
</svg>
