<svg width="21" height="21" viewBox="0 0 21 21" fill="none" xmlns="http://www.w3.org/2000/svg">
<path d="M11.349 9.91379C10.6699 9.57524 9.17846 9.07481 9.17846 9.07481V8.58227L9.21993 8.55069C9.50991 8.32976 9.70363 8.00561 9.76084 7.64558L9.7697 7.59326H9.81017C9.91946 7.5931 10.0262 7.56046 10.1169 7.49947C10.2076 7.43849 10.2781 7.35192 10.3195 7.25076C10.3686 7.1619 10.3944 7.06208 10.3945 6.96057C10.3945 6.89057 10.3811 6.82122 10.355 6.75624C10.3424 6.68499 10.3028 6.62135 10.2445 6.57857L10.1073 6.49566L10.1408 6.34563C10.3896 5.26285 9.55059 4.28667 8.42338 4.26002C8.39674 4.25903 8.36908 4.25903 8.34244 4.26002C8.3158 4.25903 8.28816 4.25903 8.26053 4.26002C7.13429 4.28667 6.29433 5.26285 6.54305 6.34563L6.57763 6.49567L6.43941 6.57857C6.3817 6.62194 6.34226 6.6853 6.32886 6.75624C6.30314 6.82128 6.29008 6.89063 6.29038 6.96057C6.29005 7.06213 6.31588 7.16207 6.36538 7.25076C6.40664 7.35199 6.47712 7.43864 6.56784 7.49964C6.65856 7.56064 6.76539 7.59323 6.87471 7.59325H6.91518L6.92307 7.64557C6.9811 8.00531 7.17465 8.32918 7.46398 8.55069L7.50543 8.58227V9.07482C7.50543 9.07482 6.014 9.57524 5.33493 9.91379C5.23323 9.96489 5.14492 10.0391 5.07704 10.1304C5.00917 10.2218 4.96363 10.3278 4.94407 10.4399C4.92332 10.5583 4.90657 10.7557 4.89075 11.0025C5.00557 11.1506 5.12953 11.2913 5.2619 11.424C6.07958 12.2394 7.18721 12.6973 8.34197 12.6973C9.49672 12.6973 10.6044 12.2394 11.422 11.424C11.5544 11.2914 11.6783 11.1506 11.7932 11.0025C11.7773 10.7558 11.7606 10.5583 11.7398 10.4399C11.7207 10.3276 11.6753 10.2215 11.6073 10.1301C11.5394 10.0387 11.4509 9.96457 11.349 9.91379Z" fill="#415C77"/>
<path d="M20.0975 17.6868L16.0223 13.2803L15.3707 13.9326L14.6326 13.1945C14.6892 13.1212 14.7458 13.0479 14.7994 12.9732C15.9551 11.3587 16.4634 9.36946 16.2238 7.39842C15.9843 5.42738 15.0144 3.61782 13.5056 2.32711C11.9968 1.03641 10.0588 0.358395 8.07448 0.42698C6.09012 0.495565 4.20362 1.30576 2.78754 2.69756C1.37147 4.08936 0.528774 5.96157 0.425888 7.94444C0.323002 9.92732 0.967405 11.8767 2.23183 13.4076C3.49626 14.9385 5.28878 15.9395 7.25538 16.2131C9.22198 16.4867 11.2197 16.0129 12.854 14.8853C12.9664 14.8077 13.0769 14.7269 13.1855 14.6428L13.9224 15.3797L13.1907 16.1114L17.6868 20.1011C17.8453 20.2596 18.0334 20.3853 18.2405 20.4711C18.4476 20.5568 18.6695 20.6009 18.8937 20.6008C19.1178 20.6007 19.3397 20.5565 19.5468 20.4706C19.7538 20.3847 19.9419 20.2588 20.1002 20.1002C20.2586 19.9416 20.3841 19.7534 20.4697 19.5462C20.5553 19.3391 20.5992 19.1171 20.599 18.8929C20.5987 18.6688 20.5543 18.4469 20.4682 18.24C20.3822 18.033 20.2562 17.845 20.0975 17.6868L20.0975 17.6868ZM12.2332 12.2349C11.3329 13.1372 10.1475 13.6993 8.87906 13.8254C7.61066 13.9515 6.33777 13.6338 5.27737 12.9265C4.21697 12.2192 3.43469 11.166 3.06387 9.94645C2.69305 8.72692 2.75665 7.41653 3.24382 6.23865C3.73099 5.06076 4.61157 4.08828 5.73548 3.48696C6.85939 2.88565 8.15706 2.69272 9.40729 2.94107C10.6575 3.18941 11.7829 3.86365 12.5917 4.84887C13.4005 5.83409 13.8425 7.0693 13.8425 8.34395C13.8424 9.80285 13.2637 11.2022 12.2332 12.2349Z" fill="#68417F"/>
</svg>
