<svg width="32" height="32" viewBox="0 0 32 32" fill="none" xmlns="http://www.w3.org/2000/svg">
<path d="M17.2936 15.1066C16.2588 14.5907 13.9862 13.8282 13.9862 13.8282V13.0777L14.0494 13.0295C14.4912 12.6929 14.7864 12.1989 14.8736 11.6503L14.8871 11.5706H14.9488C15.1153 11.5703 15.278 11.5206 15.4162 11.4277C15.5544 11.3347 15.6619 11.2028 15.7249 11.0487C15.7997 10.9133 15.839 10.7612 15.8392 10.6065C15.8391 10.4998 15.8187 10.3941 15.779 10.2951C15.7598 10.1866 15.6995 10.0896 15.6106 10.0244L15.4015 9.89806L15.4527 9.66943C15.8317 8.01949 14.5532 6.53197 12.8356 6.49136C12.795 6.48986 12.7528 6.48986 12.7122 6.49136C12.6716 6.48986 12.6295 6.48986 12.5874 6.49136C10.8713 6.53197 9.59131 8.01949 9.97031 9.66944L10.023 9.89807L9.81239 10.0244C9.72444 10.0905 9.66435 10.187 9.64392 10.2951C9.60473 10.3942 9.58483 10.4999 9.58529 10.6065C9.58479 10.7613 9.62415 10.9135 9.69958 11.0487C9.76245 11.2029 9.86985 11.335 10.0081 11.4279C10.1463 11.5209 10.3091 11.5705 10.4757 11.5706H10.5374L10.5494 11.6503C10.6378 12.1985 10.9327 12.692 11.3736 13.0295L11.4368 13.0777V13.8282C11.4368 13.8282 9.16414 14.5908 8.12936 15.1066C7.9744 15.1845 7.83982 15.2976 7.7364 15.4368C7.63297 15.576 7.56358 15.7375 7.53376 15.9083C7.50215 16.0888 7.47662 16.3896 7.45251 16.7656C7.62748 16.9913 7.81638 17.2058 8.01809 17.4079C9.26406 18.6504 10.9519 19.3481 12.7115 19.3481C14.4711 19.3481 16.159 18.6504 17.4049 17.4079C17.6066 17.2058 17.7955 16.9913 17.9705 16.7656C17.9464 16.3896 17.9209 16.0888 17.8892 15.9083C17.86 15.7373 17.7908 15.5755 17.6873 15.4362C17.5838 15.2969 17.4489 15.184 17.2936 15.1066V15.1066Z"/>
<path d="M30.6247 26.9513L24.415 20.2367L23.422 21.2306L22.2973 20.1059C22.3836 19.9943 22.4698 19.8826 22.5515 19.7687C24.3126 17.3085 25.0871 14.2773 24.7221 11.2738C24.3571 8.27031 22.8791 5.51289 20.5799 3.5461C18.2808 1.5793 15.3278 0.546142 12.304 0.650653C9.28022 0.755164 6.40555 1.98975 4.24772 4.11058C2.08989 6.23142 0.805782 9.08431 0.649004 12.1058C0.492226 15.1274 1.47417 18.0978 3.40092 20.4306C5.32766 22.7634 8.05912 24.2889 11.0559 24.7057C14.0526 25.1226 17.0967 24.4007 19.587 22.6824C19.7584 22.5642 19.9268 22.441 20.0923 22.3129L21.2152 23.4358L20.1002 24.5507L26.9513 30.6303C27.1928 30.8718 27.4795 31.0634 27.7951 31.194C28.1106 31.3247 28.4489 31.3918 28.7904 31.3917C29.1319 31.3916 29.4701 31.3241 29.7856 31.1933C30.101 31.0624 30.3876 30.8706 30.6289 30.6289C30.8703 30.3872 31.0616 30.1004 31.192 29.7847C31.3224 29.469 31.3893 29.1308 31.3889 28.7892C31.3885 28.4477 31.3208 28.1096 31.1897 27.7942C31.0586 27.4789 30.8666 27.1924 30.6247 26.9513L30.6247 26.9513ZM18.6412 18.6436C17.2692 20.0185 15.4628 20.8751 13.53 21.0672C11.5972 21.2594 9.65759 20.7753 8.04174 19.6975C6.4259 18.6197 5.23385 17.0148 4.66879 15.1565C4.10373 13.2982 4.20064 11.3014 4.94299 9.50653C5.68534 7.71165 7.02719 6.22978 8.73982 5.31349C10.4524 4.3972 12.4298 4.10321 14.3349 4.48164C16.2401 4.86007 17.955 5.88749 19.1874 7.38877C20.4198 8.89006 21.0934 10.7723 21.0934 12.7146C21.0933 14.9377 20.2114 17.07 18.6412 18.6436V18.6436Z"/>
</svg>
