<svg width="96" height="105" viewBox="0 0 96 105" fill="none" xmlns="http://www.w3.org/2000/svg">
<g clip-path="url(#clip0_1329_618)">
<path opacity="0.3" d="M49.8691 104.892C75.3778 104.892 96.0566 84.2167 96.0566 58.7125C96.0566 33.2082 75.3778 12.533 49.8691 12.533C24.3604 12.533 3.68158 33.2082 3.68158 58.7125C3.68158 84.2167 24.3604 104.892 49.8691 104.892Z" fill="#415C77"/>
<path d="M30.9012 -0.0368652L0.148376 37.2698L45.6625 90.9754L76.0052 55.3086L30.9012 -0.0368652Z" fill="#68417F"/>
<path opacity="0.1" d="M30.9012 -0.0368652L0.148376 37.2698L45.6625 90.9754L76.0052 55.3086L30.9012 -0.0368652Z" fill="black"/>
<path d="M1.37851 37.6799C2.05875 36.4557 2.90227 35.3296 3.8859 34.3326L32.1313 5.70256C32.1313 5.70256 41.9722 4.0627 44.0224 8.98229L7.93911 38.4999L1.37851 37.6799Z" fill="#F2F2F2"/>
<path d="M-0.0566101 37.065L41.7672 101.02C41.7672 101.02 45.8676 103.889 49.9679 102.25L92.8168 73.347L47.3027 4.47266L6.29897 36.45L-0.0566101 37.065Z" fill="#68417F"/>
<path d="M42.1894 14.4533L15.9449 33.3088L16.3327 33.8484L42.5772 14.9928L42.1894 14.4533Z" fill="#3F3D56"/>
<path d="M15.597 40.3664L15.0427 40.7329L49.4858 92.7987L50.0401 92.4322L15.597 40.3664Z" fill="#3F3D56"/>
<path d="M81.5456 73.4852L53.6695 93.9917L54.0634 94.527L81.9395 74.0205L81.5456 73.4852Z" fill="#3F3D56"/>
<path d="M47.1655 15.352L46.6202 15.7314L82.2934 66.9771L82.8386 66.5977L47.1655 15.352Z" fill="#3F3D56"/>
<path d="M36.1464 5.29606L3.70023 35.0691L3.97732 35.371L36.4235 5.59793L36.1464 5.29606Z" fill="#3F3D56"/>
<path d="M38.8492 5.55129L4.93878 35.4827L5.21027 35.7901L39.1207 5.85876L38.8492 5.55129Z" fill="#3F3D56"/>
<path d="M40.9705 6.14786L5.76831 35.4854L6.03099 35.8004L41.2331 6.46293L40.9705 6.14786Z" fill="#3F3D56"/>
</g>
<defs>
<clipPath id="clip0_1329_618">
<rect width="96" height="105" fill="white"/>
</clipPath>
</defs>
</svg>
