<svg width="108" height="71" viewBox="0 0 108 71" fill="none" xmlns="http://www.w3.org/2000/svg">
<path d="M54.2251 70.9689C42.7011 70.8932 31.321 68.4008 20.8203 63.6527C20.1952 63.3741 19.6646 62.9197 19.2932 62.3449C18.9218 61.7702 18.7255 61.0997 18.7284 60.4154V31.6883C18.7295 30.7472 19.1038 29.845 19.7693 29.1795C20.4347 28.514 21.337 28.1397 22.2781 28.1387H86.1722C87.1133 28.1397 88.0156 28.5141 88.681 29.1795C89.3465 29.845 89.7208 30.7472 89.7219 31.6883V60.4154C89.7247 61.0998 89.5285 61.7702 89.1571 62.345C88.7857 62.9198 88.2551 63.3742 87.63 63.6527C77.1293 68.4009 65.7492 70.8933 54.2251 70.9689Z" fill="#68417F"/>
<path d="M54.2164 47.6964C53.7427 47.6969 53.2737 47.6026 52.837 47.4191L2.16982 26.0425C1.51642 25.7669 0.960572 25.3018 0.573937 24.7074C0.187302 24.1129 -0.0123979 23.4162 0.000596115 22.7072C0.0135901 21.9981 0.238696 21.3093 0.646853 20.7293C1.05501 20.1494 1.62751 19.705 2.29057 19.4535L52.9584 0.231877C53.7745 -0.0791395 54.6768 -0.0772209 55.4916 0.237269L105.48 19.4589C106.14 19.7124 106.708 20.1569 107.114 20.7354C107.519 21.314 107.742 22.0003 107.755 22.7065C107.768 23.4127 107.571 24.1068 107.187 24.6999C106.803 25.293 106.251 25.7582 105.602 26.036L55.6125 47.4122C55.1711 47.6002 54.6962 47.6969 54.2164 47.6964Z" fill="#68417F"/>
<path d="M24.6445 65.6074C27.2584 65.6074 29.3774 63.4884 29.3774 60.8745C29.3774 58.2606 27.2584 56.1416 24.6445 56.1416C22.0306 56.1416 19.9116 58.2606 19.9116 60.8745C19.9116 63.4884 22.0306 65.6074 24.6445 65.6074Z" fill="#3F3D56"/>
<path opacity="0.2" d="M105.775 23.0017L55.785 44.378C55.3953 44.5447 54.976 44.6311 54.5521 44.6321C54.1283 44.6331 53.7085 44.5487 53.318 44.384L2.65084 23.008C2.01453 22.746 1.48368 22.2794 1.14215 21.6819C0.918732 22.0693 0.780299 22.4998 0.736016 22.9448C0.691732 23.3899 0.742627 23.8392 0.885315 24.263C1.028 24.6869 1.25921 25.0755 1.56361 25.4031C1.86801 25.7307 2.23862 25.9899 2.65084 26.1633L53.318 47.5392C53.7085 47.704 54.1283 47.7884 54.5521 47.7874C54.976 47.7863 55.3953 47.6999 55.785 47.5333L105.775 26.157C106.185 25.9821 106.553 25.7221 106.855 25.3944C107.158 25.0666 107.387 24.6784 107.528 24.2555C107.67 23.8326 107.719 23.3845 107.675 22.9409C107.63 22.4973 107.492 22.0682 107.269 21.6819C106.93 22.2745 106.405 22.7385 105.775 23.0017Z" fill="black"/>
<path d="M25.0422 60.8558C25.2514 60.8558 25.4521 60.7727 25.6 60.6248C25.748 60.4768 25.8311 60.2762 25.8311 60.067V33.6721L51.8472 24.1943C52.0564 24.1974 52.2582 24.1173 52.4084 23.9716C52.5585 23.8259 52.6446 23.6265 52.6477 23.4173C52.6508 23.2081 52.5707 23.0062 52.425 22.856C52.2793 22.7059 52.0799 22.6198 51.8707 22.6167L25.8546 32.0944C25.6452 32.0896 25.437 32.1273 25.2427 32.2053C25.0483 32.2833 24.8719 32.4 24.7239 32.5482C24.5744 32.6946 24.4557 32.8695 24.3749 33.0625C24.2941 33.2555 24.2528 33.4628 24.2534 33.6721V60.067C24.2534 60.2762 24.3365 60.4768 24.4845 60.6247C24.6324 60.7727 24.833 60.8558 25.0422 60.8558Z" fill="#3F3D56"/>
</svg>
