<svg width="33" height="33" viewBox="0 0 33 33" fill="none" xmlns="http://www.w3.org/2000/svg">
<path d="M25.1682 8.79032H20.1264C19.7921 8.79032 19.4715 8.92339 19.2351 9.16027C18.9988 9.39715 18.866 9.71843 18.866 10.0534C18.866 10.3884 18.9988 10.7097 19.2351 10.9466C19.4715 11.1834 19.7921 11.3165 20.1264 11.3165H25.1682C25.5025 11.3165 25.8231 11.4496 26.0595 11.6865C26.2959 11.9234 26.4287 12.2446 26.4287 12.5796V24.857L24.4498 23.0255C24.2173 22.8074 23.9111 22.6856 23.5927 22.6845H12.5637C12.2294 22.6845 11.9088 22.5514 11.6724 22.3145C11.4361 22.0776 11.3033 21.7564 11.3033 21.4214V20.1583C11.3033 19.8233 11.1705 19.502 10.9341 19.2651C10.6977 19.0282 10.3771 18.8952 10.0428 18.8952C9.70851 18.8952 9.38791 19.0282 9.15153 19.2651C8.91515 19.502 8.78235 19.8233 8.78235 20.1583V21.4214C8.78235 22.4264 9.18074 23.3902 9.88989 24.1008C10.599 24.8115 11.5608 25.2107 12.5637 25.2107H23.1011L26.8824 28.659C27.1149 28.8771 27.4211 28.9989 27.7395 29C27.9124 28.9981 28.0834 28.9638 28.2437 28.899C28.4692 28.8003 28.6609 28.6378 28.7953 28.4313C28.9297 28.2248 29.0008 27.9834 29 27.7369V12.5796C29 12.0777 28.9006 11.5808 28.7074 11.1178C28.5142 10.6547 28.2312 10.2347 27.8747 9.88216C27.5182 9.52962 27.0954 9.25156 26.6308 9.06413C26.1662 8.8767 25.669 8.78362 25.1682 8.79032ZM13.2948 17.6321H16.3451C16.6794 17.6321 17 17.499 17.2363 17.2621C17.4727 17.0252 17.6055 16.7039 17.6055 16.3689V13.3122C17.6065 13.146 17.5747 12.9812 17.5119 12.8273C17.4492 12.6734 17.3568 12.5335 17.24 12.4154L10.2067 5.3673C9.9705 5.13205 9.65104 5 9.31804 5C8.98505 5 8.66559 5.13205 8.42943 5.3673L5.36653 8.43665C5.13177 8.67331 5 8.99344 5 9.32714C5 9.66083 5.13177 9.98097 5.36653 10.2176L12.3998 17.2658C12.5176 17.3828 12.6573 17.4754 12.8109 17.5383C12.9644 17.6012 13.1289 17.633 13.2948 17.6321ZM9.31174 8.04508L15.0846 13.8301V15.0932H13.8242L8.03869 9.32082L9.31174 8.04508Z" fill="#68417F"/>
</svg>
